<?xml version="1.0" standalone="no"?>
<!DOCTYPE svg PUBLIC "-//W3C//DTD SVG 1.1//EN" "http://www.w3.org/Graphics/SVG/1.1/DTD/svg11.dtd" >
<svg xmlns="http://www.w3.org/2000/svg" xmlns:xlink="http://www.w3.org/1999/xlink" version="1.1">
<metadata></metadata>
<defs>
<font id="cern-icon-fonticon-font" horiz-adv-x="2048" >
<font-face units-per-em="2048" ascent="1920" descent="-128" />
<missing-glyph horiz-adv-x="500" />
<glyph horiz-adv-x="0" />
<glyph unicode="&#xd;" />
<glyph unicode="!" d="M476 992q0 -8 12 -20l416 -416l8 -8h12h12l8 8q8 4 8 20t-8 20l-360 360h916q36 0 36 36q0 32 -36 32h-920l360 360q8 8 8 20t-8 20t-24 8q-12 0 -20 -8l-408 -408q-12 -12 -12 -24z" />
<glyph unicode="&#x22;" d="M580 1092q0 -8 4 -12v-4q4 -4 4 -8q16 -8 24 -8q4 0 20 8l360 360v-916q0 -32 32 -32q36 0 36 32v920l356 -356q8 -8 20 -8q16 0 24 8t8 20t-8 20l-412 412q-8 8 -20 8t-20 -8l-420 -416l-4 -4v-8z" />
<glyph unicode="#" d="M580 884q0 -12 8 -20l412 -412q8 -8 20 -8t20 8l420 416q0 4 4 12q4 4 4 8q0 8 -4 12v4l-4 8q-16 8 -24 8q-4 0 -20 -8l-360 -360v916q0 32 -32 32q-36 0 -36 -32v-920l-356 356q-8 8 -20 8q-16 0 -24 -8t-8 -20z" />
<glyph unicode="$" d="M820 988q0 12 8 20l416 416l8 8h12h12q4 0 4 -4l8 -4q8 -8 8 -20t-8 -20l-396 -396l388 -388q8 -8 8 -24t-8 -20q-4 -8 -20 -8t-24 8l-408 412q-8 8 -8 20z" />
<glyph unicode="%" d="M612 788q0 12 12 20l408 412q16 8 24 8q4 0 20 -8l416 -416l4 -4q0 -8 4 -8v-8v-12l-4 -4q0 -8 -4 -8q-16 -8 -20 -8q-12 0 -20 8l-396 396l-392 -388q-4 -8 -20 -8t-20 8q-12 8 -12 20z" />
<glyph unicode="&#x26;" d="M612 1196q0 4 4 12q0 4 8 12t20 8t20 -8l396 -396l388 388q12 12 24 12q8 0 20 -12q8 -8 8 -20t-8 -20l-412 -412q-8 -8 -20 -8t-20 8l-416 416q-8 8 -8 12z" />
<glyph unicode="'" d="M892 800v436q0 28 28 28q12 0 20 -8l228 -228q8 -4 8 -10t-8 -10l-228 -228q-20 -20 -40 0q-8 8 -8 20z" />
<glyph unicode="(" d="M896 1024l224 236q16 20 36 0q8 -4 8 -16l16 -440q0 -28 -24 -28q-16 0 -20 8l-236 220q-12 4 -4 20z" />
<glyph unicode=")" d="M788 904q0 8 8 16l232 232q8 8 16 0l232 -232q4 -8 4 -20t-4 -16q-16 -8 -20 -8h-440q-28 0 -28 28z" />
<glyph unicode="*" d="M856 1004l352 -476q16 -24 36 -8q20 20 8 40q-124 212 -124 464t124 464q12 24 -8 40t-36 -8l-352 -476q-12 -20 0 -40z" />
<glyph unicode="+" d="M556 836q16 -24 36 -8q216 128 466 128t466 -128q28 -20 36 12q12 20 -4 36l-476 348q-24 24 -44 0l-476 -348q-20 -16 -4 -40z" />
<glyph unicode="," d="M768 668v712q0 8 12 20q16 8 28 8q16 0 28 -12l532 -352q12 -12 12 -20q0 -16 -12 -20l-532 -356q-16 -8 -28 -8t-28 8q-12 8 -12 20z" />
<glyph unicode="-" d="M68 1024q0 -204 76 -372q76 -180 204 -304q124 -128 304 -204q168 -76 372 -76t372 76q180 76 304 204q128 124 204 304q76 168 76 372t-76 372q-76 180 -204 304q-124 128 -304 204q-168 76 -372 76t-372 -76q-180 -76 -304 -204q-128 -124 -204 -304q-76 -168 -76 -372 zM188 1024q0 184 68 324q68 160 176 268t268 176q140 68 324 68t324 -68q160 -68 268 -176q104 -104 180 -268q64 -144 64 -324t-64 -324q-76 -164 -180 -268q-116 -116 -268 -180q-156 -68 -324 -68t-324 68q-152 64 -268 180q-108 108 -176 268q-68 140 -68 324zM768 668 v712q0 8 12 20q16 8 28 8q16 0 28 -12l532 -352q12 -12 12 -20q0 -16 -12 -20l-532 -356q-16 -8 -28 -8t-28 8q-12 8 -12 20z" />
<glyph unicode="." d="M172 824v60v36q0 20 24 20q20 0 20 -20v-36v-56q8 -20 -20 -20q-16 -4 -24 16zM172 824q0 16 20 24q24 0 24 -20q8 -56 16 -92q0 -16 -20 -24q-24 0 -24 16q-8 32 -16 96zM172 920q0 48 12 96q0 24 24 16q20 0 20 -24q-12 -44 -12 -88q0 -20 -24 -20q-20 0 -20 20z M184 1016q8 48 24 96q4 16 28 16q20 -8 12 -28q-16 -52 -20 -92q-8 -16 -28 -16q-20 8 -16 24zM188 728q-8 24 16 24q20 8 28 -16q8 -48 24 -88q8 -20 -12 -28t-28 12q-12 32 -28 96zM192 928q0 20 24 20h1604q20 0 20 -20t-20 -20h-1604q-24 0 -24 20zM208 744q0 20 24 20 h1572q20 0 20 -20t-20 -20h-1572q-24 0 -24 20zM208 1112l36 96q12 20 32 12q20 -12 8 -28q-12 -28 -36 -92q-8 -20 -28 -12q-16 8 -12 24zM216 632q-8 20 12 28t28 -12q24 -64 40 -92q8 -20 -8 -28t-32 8q-16 32 -40 96zM228 1112q0 20 20 20h1540q20 0 20 -20t-20 -20 h-1540q-20 0 -20 20zM244 1208q16 32 56 96q12 16 32 8q16 -16 4 -28q-32 -48 -52 -92q-8 -20 -28 -12q-20 12 -12 28zM256 536q-8 20 12 28t28 -8q24 -44 56 -92q12 -12 -4 -28q-16 -12 -32 4zM276 560q0 24 20 24h1436q24 0 24 -24q0 -20 -24 -20h-1436q-20 0 -20 20z M300 1304q40 60 76 96q16 16 32 4q12 -12 0 -32q-48 -56 -72 -88q-4 -8 -14 -10t-14 2q-16 12 -8 28zM312 440q-8 24 8 28q16 16 28 -4q4 -4 28 -34t40 -46l1160 -4q24 0 24 -20t-24 -20l-1168 4q-12 0 -16 4q-44 44 -80 92zM316 1296q0 20 24 20h1356q24 0 24 -20t-24 -20 h-1356q-24 0 -24 20zM376 1400q44 48 104 96q20 12 32 -4q12 -12 -4 -28q-60 -44 -100 -92q-16 -12 -28 0q-20 12 -4 28zM480 1468q-16 12 0 28q80 60 160 96q20 8 28 -8q12 -20 -8 -28q-68 -28 -152 -92q-16 -16 -28 4zM484 1480q0 20 24 20h1020q20 0 20 -20t-20 -20 h-1020q-24 0 -24 20zM632 1564q-12 20 8 28q180 80 372 80q188 0 368 -80q20 -8 12 -28q-16 -12 -32 -8q-172 76 -348 76q-180 0 -352 -76q-20 -8 -28 8zM1352 1584q8 16 28 8q92 -40 160 -96q16 -16 4 -28q-16 -20 -32 -4q-84 64 -152 92q-20 12 -8 28zM1508 1492 q16 20 32 4q60 -48 104 -96q12 -16 0 -28q-20 -12 -32 0q-40 48 -100 92q-16 16 -4 28zM1584 372q28 28 76 92q16 16 32 4q16 -8 4 -28q-24 -32 -80 -96q-16 -16 -28 0q-20 12 -4 28zM1612 1372q-12 20 0 32q16 12 32 -4q36 -36 76 -96q12 -12 -8 -28q-4 -4 -14 -2t-14 10 q-28 44 -72 88zM1660 464q8 12 60 92q8 16 28 8t8 -28q-24 -48 -60 -96q-12 -20 -28 -4q-16 12 -8 28zM1684 1284q-12 12 8 28q16 8 28 -8q40 -64 56 -96q8 -16 -12 -28q-20 -8 -28 12q-24 44 -52 92zM1720 556q16 28 40 92q8 20 28 12t12 -28q-24 -64 -44 -96 q-8 -16 -28 -8t-8 28zM1736 1192q-8 20 12 28q20 12 28 -12q24 -48 36 -96q4 -16 -12 -24q-20 -8 -28 12q-4 20 -36 92zM1760 648q8 20 28 88q8 24 28 16q16 0 16 -24q-8 -32 -32 -96q-8 -20 -28 -12t-12 28zM1772 1100q-8 20 16 28q24 0 24 -16q20 -48 24 -96 q4 -16 -16 -24q-24 0 -24 16q-16 64 -24 92zM1788 736q8 36 16 92q0 20 24 20q20 -8 20 -24q-8 -64 -16 -96q-4 -16 -28 -16q-24 8 -16 24zM1796 1008q-8 24 16 24q24 8 24 -16q12 -48 12 -96q0 -20 -20 -20q-24 0 -24 20q0 32 -8 88zM1804 828v56v36q0 20 20 20 q24 0 24 -20v-36v-60q-8 -20 -24 -16q-20 0 -20 20z" />
<glyph unicode="/" d="M272 1160q0 32 32 32t32 -32t-32 -32t-32 32zM280 840q-20 28 4 44t44 -4t-4 -44q-28 -12 -44 4zM280 1384q-16 24 4 44q24 16 44 -4q16 -24 -4 -44q-24 -16 -44 4zM320 636q0 28 28 28q32 0 32 -28q0 -32 -32 -32q-28 0 -28 32zM428 420q-8 32 24 40q28 0 36 -24 q8 -28 -24 -36q-28 -8 -36 20zM452 1080q0 32 32 32t32 -32t-32 -32t-32 32zM452 1560q0 32 32 32t32 -32t-32 -32t-32 32zM504 700q-8 36 24 36q36 8 36 -20q8 -36 -20 -36q-32 -8 -40 20zM636 868q-16 24 8 44q28 16 40 -8q24 -24 -4 -40q-20 -20 -44 4zM648 616 q-20 20 4 44q32 16 44 -8q24 -24 -4 -40q-20 -20 -44 4zM656 1400q-8 36 24 36q28 8 36 -20q8 -36 -24 -36q-28 -8 -36 20zM660 764q-16 32 8 44q24 24 40 -4q16 -24 -4 -44t-44 4zM688 1008q-8 28 24 36q28 8 36 -24q8 -28 -24 -36q-28 -8 -36 24zM708 456q4 4 12 16t16 20 q72 72 144 8q16 -12 76 -60v432q0 36 26 62t62 26t62 -26t26 -62v-256h24q36 -8 100 -24q172 -60 156 -188q-4 -20 -10 -54t-6 -50l-8 -40t-10 -40t-10 -32q0 -8 -4 -16t-4 -12l-4 -8q-4 -12 -20 -12h-372q-12 0 -16 8l-236 284q-8 16 -4 24zM736 1188q-8 28 24 36 q28 8 36 -24q8 -28 -24 -36q-28 -8 -36 24zM736 1748q-8 28 24 36q28 8 36 -24q8 -28 -24 -36q-28 -8 -36 24zM752 448l220 -268h348q4 4 4 8q4 8 4 12q4 12 14 48t14 60q8 72 16 104q12 96 -128 140q-28 12 -92 20q-12 4 -32 4q-4 4 -12 4q-20 0 -20 20v272q0 44 -44 44 t-44 -44v-476q0 -16 -12 -20t-24 4l-4 4q-8 4 -20 16q-4 4 -88 68q-40 36 -88 -4q-4 -8 -12 -16zM788 952q-8 32 24 40q28 0 36 -24q8 -28 -24 -36q-28 -8 -36 20zM792 800q-20 20 4 44q24 16 44 -4q16 -32 -8 -44q-24 -24 -40 4zM796 1096q-8 28 24 36q28 8 36 -24 q8 -28 -24 -36q-28 -8 -36 24zM824 652q-16 24 4 44t44 -4q16 -24 -4 -44q-28 -20 -44 4zM892 1372q-8 28 24 36q28 8 36 -24q8 -28 -24 -36q-28 -8 -36 24zM904 1040q-8 28 24 36q28 8 36 -24q8 -28 -24 -36q-28 0 -36 24zM916 1228q-8 28 24 36q28 8 36 -24q8 -28 -24 -36 q-28 -8 -36 24zM1000 1124q-8 28 24 36q28 8 36 -24q8 -28 -24 -36q-28 -8 -36 24zM1008 1808q-8 28 20 36q32 8 40 -24q8 -28 -24 -36q-36 -8 -36 24zM1020 1464q0 32 24 36q32 8 40 -24q0 -28 -24 -36q-32 -8 -40 24zM1048 1312q-8 28 24 36q28 8 36 -24q8 -28 -24 -36 q-28 -8 -36 24zM1116 1040q-8 28 24 36q36 8 36 -24q8 -28 -20 -36q-36 0 -40 24zM1124 1216q-8 36 24 36q28 8 36 -20q8 -36 -24 -36q-28 -8 -36 20zM1208 756q-8 28 24 36q28 8 36 -24q8 -28 -24 -36q-28 -8 -36 24zM1220 1256q-8 28 24 36q28 8 36 -24q8 -28 -24 -36 q-28 -8 -36 24zM1244 1096q-8 28 24 36q28 8 36 -24q8 -28 -24 -36q-28 -8 -36 24zM1252 1384q-16 24 4 44t44 -4q12 -28 -8 -44q-24 -24 -40 4zM1276 1628q-8 28 24 36q36 8 36 -24q8 -28 -20 -36q-32 -8 -40 24zM1296 896q-8 36 24 36q36 8 36 -20q8 -36 -20 -36 q-32 -8 -40 20zM1332 1032q-8 28 24 36q28 8 36 -24q8 -28 -24 -36q-28 -8 -36 24zM1336 1196q-16 24 8 40q28 16 44 -8q16 -32 -12 -44t-40 12zM1384 748q-8 28 24 36q28 8 36 -24q8 -28 -24 -36q-28 -8 -36 24zM1384 1320q-8 28 24 36q28 8 36 -20q8 -32 -24 -40 q-28 0 -36 24zM1440 884q-8 36 24 36q28 8 36 -20q8 -36 -24 -36q-28 -8 -36 20zM1440 1772q-8 28 24 36q28 8 36 -20q8 -32 -24 -40q-28 0 -36 24zM1460 1032q0 32 24 36q32 8 40 -24q0 -28 -24 -36q-32 -8 -40 24zM1488 1164q-8 28 24 36q28 8 36 -24q8 -28 -24 -36 q-28 -8 -36 24zM1576 668q-8 28 24 36q28 8 36 -24q8 -28 -24 -36q-28 -8 -36 24zM1576 1628q-8 28 24 36q28 8 36 -24q8 -28 -24 -36q-28 -8 -36 24zM1712 1032q-8 28 20 36q32 8 40 -24q8 -28 -24 -36q-36 -8 -36 24zM1712 1396q-8 28 20 36q32 8 40 -20q8 -32 -24 -40 q-36 0 -36 24z" />
<glyph unicode="0" d="M476 1016q0 4 2 28t2 44q4 32 12 104q8 48 32 108q24 56 56 72q8 8 88 28q68 16 356 16q156 0 212 -4q80 -4 136 -12q52 -8 72 -16q8 0 36 -16q32 -24 52 -72q24 -92 24 -100q12 -52 12 -104q0 -20 2 -44t2 -28q0 -8 -2 -36t-2 -44q-4 -36 -12 -100q-16 -64 -28 -96 q-16 -40 -48 -64q-28 -16 -36 -16q-20 -8 -72 -16q-56 -8 -136 -12q-56 -4 -212 -4q-288 0 -356 16q-80 20 -88 24q-28 20 -56 68q-16 36 -28 100q-8 32 -16 104q0 20 -2 44t-2 28zM544 1016q4 -116 24 -196q24 -76 48 -88q20 -8 88 -20q72 -12 320 -12q256 0 332 12 q76 16 84 24q16 8 44 88q20 80 20 196q0 112 -20 200q-24 84 -44 92q-8 8 -84 20q-68 16 -332 16q-240 0 -320 -12q-68 -12 -88 -20q-24 -12 -48 -96q-16 -84 -24 -204zM888 832v376q0 12 4 20l12 12q8 4 20 4q8 0 16 -4l304 -188q8 -4 16 -12q0 -4 2 -10t2 -10t-2 -8t-2 -8 q-8 -8 -16 -12l-304 -188l-8 -4h-12h-8q-4 0 -8 4l-12 12q-4 4 -4 16zM956 892l208 128l-208 128v-256z" />
<glyph unicode="1" d="M36 1024q0 412 288 700t700 288t700 -288t288 -700t-288 -700t-700 -288t-700 288t-288 700zM104 1024q0 -380 270 -650t650 -270t650 270t270 650t-270 650t-650 270t-650 -270t-270 -650zM476 1016q0 4 2 28t2 44q4 32 12 104q8 48 32 108q24 56 56 72q8 8 88 28 q68 16 356 16q156 0 212 -4q80 -4 136 -12q52 -8 72 -16q8 0 36 -16q32 -24 52 -72q24 -92 24 -100q12 -52 12 -104q0 -20 2 -44t2 -28q0 -8 -2 -36t-2 -44q-4 -36 -12 -100q-16 -64 -28 -96q-16 -40 -48 -64q-28 -16 -36 -16q-20 -8 -72 -16q-56 -8 -136 -12 q-56 -4 -212 -4q-288 0 -356 16q-80 20 -88 24q-28 20 -56 68q-16 36 -28 100q-8 32 -16 104q0 20 -2 44t-2 28zM544 1016q4 -116 24 -196q24 -76 48 -88q20 -8 88 -20q72 -12 320 -12q256 0 332 12q76 16 84 24q16 8 44 88q20 80 20 196q0 112 -20 200q-24 84 -44 92 q-8 8 -84 20q-68 16 -332 16q-240 0 -320 -12q-68 -12 -88 -20q-24 -12 -48 -96q-16 -84 -24 -204zM888 832v376q0 12 4 20l12 12q8 4 20 4q8 0 16 -4l304 -188q8 -4 16 -12q0 -4 2 -10t2 -10t-2 -8t-2 -8q-8 -8 -16 -12l-304 -188l-8 -4h-12h-8q-4 0 -8 4l-12 12 q-4 4 -4 16zM956 892l208 128l-208 128v-256z" />
<glyph unicode="2" d="M420 1048q0 160 112 272t272 112q156 0 256 -100l-104 -100q-60 60 -152 60q-100 0 -170 -72t-70 -172t70 -172t170 -72t154 54t66 114h-220v132h364q4 -20 4 -64q0 -168 -100 -272t-268 -104q-160 0 -272 112t-112 272zM1300 992v112h108v108h112v-108h108v-112h-108 v-108h-112v108h-108z" />
<glyph unicode="3" d="M36 1024q0 412 288 700t700 288t700 -288t288 -700t-288 -700t-700 -288t-700 288t-288 700zM104 1024q0 -380 270 -650t650 -270t650 270t270 650t-270 650t-650 270t-650 -270t-270 -650zM420 1048q0 160 112 272t272 112q156 0 256 -100l-104 -100q-60 60 -152 60 q-100 0 -170 -72t-70 -172t70 -172t170 -72t154 54t66 114h-220v132h364q4 -20 4 -64q0 -168 -100 -272t-268 -104q-160 0 -272 112t-112 272zM1300 992v112h108v108h112v-108h108v-112h-108v-108h-112v108h-108z" />
<glyph unicode="4" d="M752 844q0 40 26 66t66 26t66 -26t26 -66t-26 -66t-66 -26t-66 26t-26 66zM752 1088v68q0 12 8 20t20 8h4q156 -12 276 -124q112 -120 124 -276q0 -16 -8 -24t-20 -8h-68q-28 0 -28 28q-12 112 -90 190t-190 90q-28 0 -28 28zM752 1332v72q0 12 8 20t20 8 q264 -12 452 -200t200 -448q4 -12 -8 -24q-8 -8 -20 -8h-72q-28 0 -28 28q-12 212 -162 362t-362 162q-28 0 -28 28z" />
<glyph unicode="5" d="M36 1024q0 412 288 700t700 288t700 -288t288 -700t-288 -700t-700 -288t-700 288t-288 700zM104 1024q0 -380 270 -650t650 -270t650 270t270 650t-270 650t-650 270t-650 -270t-270 -650zM752 844q0 40 26 66t66 26t66 -26t26 -66t-26 -66t-66 -26t-66 26t-26 66z M752 1088v68q0 12 8 20t20 8h4q156 -12 276 -124q112 -120 124 -276q0 -16 -8 -24t-20 -8h-68q-28 0 -28 28q-12 112 -90 190t-190 90q-28 0 -28 28zM752 1332v72q0 12 8 20t20 8q264 -12 452 -200t200 -448q4 -12 -8 -24q-8 -8 -20 -8h-72q-28 0 -28 28q-12 212 -162 362 t-362 162q-28 0 -28 28z" />
<glyph unicode="6" d="M36 1024q0 412 288 700t700 288t700 -288t288 -700t-288 -700t-700 -288t-700 288t-288 700zM104 1024q0 -380 270 -650t650 -270t650 270t270 650t-270 650t-650 270t-650 -270t-270 -650zM536 984q0 -16 16 -32q12 -16 32 -16h536l-172 -172q-12 -12 -12 -32t12 -36 q12 -12 36 -12q20 0 32 12l280 288l-280 288q-4 4 -16 12q-8 4 -16 4q-12 0 -20 -4q-4 -4 -16 -12q-12 -12 -12 -32q0 -16 12 -36l176 -172h-540q-20 0 -32 -16q-16 -16 -16 -32zM1296 512v956q0 32 36 32q32 0 32 -32v-956q0 -36 -32 -36q-36 0 -36 36z" />
<glyph unicode="7" d="M36 1024q0 412 288 700t700 288t700 -288t288 -700t-288 -700t-700 -288t-700 288t-288 700zM104 1024q0 -380 270 -650t650 -270t650 270t270 650t-270 650t-650 270t-650 -270t-270 -650zM684 512v956q0 32 32 32q36 0 36 -32v-956q0 -36 -36 -36q-32 0 -32 36z M752 992l280 -288l8 -4l8 -4q8 -4 16 -4q12 0 20 4q4 0 8 4l8 4q12 16 12 36t-12 36l-176 172h540q20 0 32 16q16 16 16 32t-16 32q-12 16 -32 16h-536l172 172q12 12 12 32q0 16 -12 36q-12 12 -36 12q-20 0 -32 -12z" />
<glyph unicode="8" d="M36 1024q0 412 288 700t700 288t700 -288t288 -700t-288 -700t-700 -288t-700 288t-288 700zM104 1024q0 -380 270 -650t650 -270t650 270t270 650t-270 650t-650 270t-650 -270t-270 -650zM896 740l256 336q24 28 60 8q36 -24 8 -60l-256 -332q-24 -36 -60 -8 q-40 24 -8 56zM896 1368l256 -336q28 -28 60 -8q36 28 8 60l-256 332q-24 36 -60 8q-40 -24 -8 -56z" />
<glyph unicode="9" d="M36 1024q0 412 288 700t700 288t700 -288t288 -700t-288 -700t-700 -288t-700 288t-288 700zM104 1024q0 -380 270 -650t650 -270t650 270t270 650t-270 650t-650 270t-650 -270t-270 -650zM828 1024l256 -332q24 -36 60 -8q40 24 8 56l-256 336q-24 28 -60 8 q-36 -24 -8 -60zM828 1084l256 332q24 36 60 8q40 -24 8 -56l-256 -336q-28 -28 -60 -8q-36 28 -8 60z" />
<glyph unicode=":" d="M268 656q0 140 172 248q16 16 32 -8q8 -20 -8 -32q-148 -92 -148 -208q0 -108 132 -198t344 -126q8 0 12 -4l220 -216l216 216q4 4 12 4q212 36 344 126t132 198q0 128 -168 220q-16 16 -8 32q12 20 32 8q192 -104 192 -260q0 -124 -140 -224t-368 -144l-228 -224 q-20 -12 -32 0l-232 224q-228 44 -368 144t-140 224zM500 1232v276q0 28 20 48t48 20h216q20 0 20 -24t-20 -24h-216q-20 0 -20 -20v-276q0 -20 20 -20h16q24 0 24 -24v-368q0 -48 48 -48h68q48 0 48 44v268q0 24 20 24q24 0 24 -24v-268q0 -40 -28 -66t-68 -26l-68 4 q-36 0 -64 26t-28 66v344q-60 8 -60 68zM592 1696q0 40 28 68t68 28t70 -28t30 -68t-30 -68t-70 -28t-68 28t-28 68zM636 1696q0 -52 52 -52t52 52t-52 52t-52 -52zM780 1220v372q0 36 26 60t58 24h324q32 0 56 -24t24 -60v-372q0 -32 -24 -56t-56 -24v-480q0 -48 -34 -82 t-86 -34l-92 4q-48 0 -82 34t-34 82v476q-32 0 -56 24t-24 56zM828 1220q0 -36 36 -36h20q24 0 24 -24v-496q0 -32 22 -52t50 -20h88q32 0 54 20t22 48v500q0 24 20 24h24q36 0 36 36v372q0 40 -36 40h-324q-36 0 -36 -40v-372zM888 1848q0 56 40 96t96 40t98 -40t42 -96 t-42 -98t-98 -42t-96 42t-40 98zM932 1848q0 -40 26 -66t66 -26t66 26t26 66q0 36 -26 62t-66 26t-66 -26t-26 -62zM1224 820v268q0 24 24 24q20 0 20 -24v-268q0 -20 16 -34t32 -10h68q48 0 48 44v372q0 24 24 24h16q20 0 20 20v276q0 20 -20 20h-216q-20 0 -20 24t20 24 h216q28 0 48 -20t20 -48v-276q0 -60 -60 -68v-348q0 -36 -28 -62t-64 -30h-68q-40 0 -68 26t-28 66zM1252 1700q0 40 30 68t70 28t68 -28t28 -68t-28 -68t-68 -28t-70 28t-30 68zM1300 1700q0 -52 52 -52t52 52t-52 52t-52 -52z" />
<glyph unicode=";" d="M344 212q0 -28 28 -28h1292q24 0 24 28v256q0 128 -50 236t-130 170t-130 92t-94 46q100 160 116 336q28 48 28 76v4q-8 208 -204 304q-80 104 -204 104q-132 0 -204 -104q-200 -96 -208 -300v-4q0 -40 28 -76q8 -172 112 -340q-40 -16 -92 -46t-130 -94t-130 -170 t-52 -234v-256zM400 240v228q0 144 78 260t146 158t132 70v-408h-96q-24 0 -24 -28v-280h-236zM664 1428q0 168 172 252l156 -224q12 -12 24 -12t24 12l160 228q172 -92 172 -256q-4 -12 -44 -28t-126 -30t-186 -14t-184 14t-124 30t-44 28zM688 240v252h660v-252h-660z M692 1348q112 -44 324 -44q220 0 328 44q-8 -104 -60 -220t-124 -184q-144 -136 -288 4q-76 68 -124 184t-56 216zM756 324v68h68v-68h-68zM812 548v380q4 -4 10 -12t10 -12q96 -84 184 -84q96 0 184 84q16 16 24 28v-384h-412zM876 1720q56 56 142 58t142 -58l-144 -200z M1224 324v68h68v-68h-68zM1280 548v408q64 -28 132 -70t146 -158t78 -260v-228h-236v280q0 28 -28 28h-92z" />
<glyph unicode="&#x3c;" d="M272 1532q0 12 12 16l732 296h16l732 -296q12 -4 12 -16t-12 -20l-108 -44v-252q60 -20 60 -76q0 -32 -24 -56t-56 -24t-54 24t-22 56q0 56 60 76v236l-180 -68v-160q0 -32 -40 -60q-4 -8 -20 -16v-8q0 -160 -96 -300q-112 -152 -260 -152t-260 152q-96 140 -96 300v8 q-16 8 -20 16q-40 28 -40 60v160l-324 128q-12 8 -12 20zM332 248q0 172 204 292t488 120t488 -120t204 -292q0 -20 -20 -20h-1344q-20 0 -20 20zM344 1532l680 -272l680 272l-680 272zM372 268h1304q-20 140 -184 240q-196 112 -468 112t-468 -112q-164 -100 -184 -240z M648 1224q0 -12 24 -28q20 -20 76 -40q128 -36 276 -36t276 36q56 20 76 40q24 16 24 28v144l-368 -148q-8 -8 -16 0l-368 148v-144zM708 1132q0 -144 92 -268q96 -136 224 -136t224 136q92 124 92 268q-4 -4 -14 -8t-14 -4q-128 -40 -288 -40t-288 40q-4 0 -14 4t-14 8z M1600 1140q0 -40 36 -40q40 0 40 40t-40 40q-36 0 -36 -40z" />
<glyph unicode="=" d="M272 732q0 -132 94 -224t226 -92t224 92t92 224v28q4 44 38 76t82 32q44 0 78 -34t34 -82v-20q-8 -184 156 -280q164 -92 320 0q160 96 160 280v608q0 124 -88 212t-212 88q-32 0 -32 -32t32 -32q100 0 168 -68t68 -168v-420q-112 144 -288 124q-188 -20 -256 -184 q-56 68 -144 68t-144 -68q-72 164 -256 184q-176 20 -288 -124v420q0 100 68 168t168 68q32 0 32 32t-32 32q-124 0 -212 -88t-88 -212v-608zM336 732q0 104 76 178t180 74t180 -74t76 -178t-76 -178t-180 -74t-180 74t-76 178zM1200 732q0 104 76 178t180 74q108 0 182 -74 t74 -178t-74 -178t-182 -74q-104 0 -180 74t-76 178z" />
<glyph unicode="&#x3e;" d="M272 1168q0 156 116 268l160 156q8 8 16 8h12l52 -8q12 -4 20 4t4 20l-8 48q-4 16 8 28l60 60q24 24 52 24q32 0 56 -24l204 -196q52 -52 0 -104l-64 -60q-16 -16 -28 -8l-60 12q-8 0 -8 -4q-8 -8 -8 -32q8 -28 32 -48l60 -52q16 -12 16 -32q-4 -20 -24 -24t-32 8l-60 52 q-48 40 -52 84q-12 44 16 84q28 36 72 28l44 -12l48 52q8 4 0 12l-204 196q0 4 -8 4q-4 0 -4 -4l-52 -48l8 -32q8 -44 -24 -76t-76 -24l-36 8l-148 -144q-92 -92 -96 -216t84 -220l40 32q-40 116 44 200q0 4 4 4t8 4q56 44 128 38t120 -58l52 -56q16 -28 -8 -40 q-20 -20 -40 0l-52 56q-72 76 -160 16l-4 -4v-4q-68 -68 -28 -144q20 -28 -12 -52l-72 -52q-28 -20 -52 4q-116 112 -116 268zM340 548q-12 136 80 236t232 100h28q56 -4 104 36l324 316q44 44 36 104q-8 144 96 240q100 100 252 88q40 -8 52 -40q12 -36 -16 -64l-92 -92 q-40 -32 0 -64l68 -68q36 -36 72 0l92 88q28 28 64 16q40 -12 40 -52q16 -132 -80 -236q-92 -100 -232 -100h-24q-64 8 -108 -36l-320 -312q-48 -48 -40 -104q12 -136 -84 -232q-88 -100 -228 -100q-20 0 -32 4q-40 0 -52 40q-16 36 16 60l92 92q32 32 0 68l-72 68 q-32 28 -68 0l-92 -92q-28 -28 -64 -12q-36 12 -44 48zM404 560l92 88q32 32 76 32q48 0 80 -32l72 -68q76 -76 0 -156l-92 -88h24q108 0 184 76q72 84 64 184q-8 96 60 156l320 312q64 64 156 56h20q108 0 184 76q76 84 64 188l-88 -88q-32 -32 -80 -32t-80 32l-68 68 q-32 28 -32 76t32 76l88 88q-108 12 -196 -68q-84 -84 -76 -192q8 -88 -56 -152l-320 -312q-76 -68 -160 -56q-112 8 -196 -72q-80 -80 -72 -192zM1140 692l236 -256q40 -48 116 -56h8q112 8 152 104q40 104 -44 176l-264 228q-28 20 -48 0q-16 -24 4 -44l268 -228 q48 -48 24 -112q-28 -60 -96 -60q-48 0 -72 32l-236 256q-20 28 -44 4q-28 -20 -4 -44z" />
<glyph unicode="?" d="M272 1316v48q0 64 64 80l44 4q0 8 6 24t10 24l-24 32q-36 60 12 100l36 36q40 48 100 12l32 -24q8 0 24 6t24 10l4 44q16 64 80 64h48q68 0 76 -64l8 -44q8 -4 24 -10t24 -6l32 24q56 32 100 -12l36 -36q52 -44 8 -96l-24 -36q16 -32 20 -44q4 -20 -8 -32q-4 -12 -28 -12 q-16 8 -24 24q-4 20 -24 52q-8 16 4 32l36 52q8 8 -4 16l-36 36q-4 12 -20 4l-48 -36q-20 -12 -36 0q-20 12 -68 28q-16 0 -24 24l-8 60q-4 12 -16 12h-48q-16 0 -16 -12l-12 -60q0 -24 -24 -24q-48 -20 -64 -32q-20 -8 -36 4l-48 36q-16 8 -20 -4l-36 -36q-12 -4 -4 -20 l36 -48q12 -20 0 -36q-12 -20 -28 -68q0 -20 -24 -20l-60 -12q-12 0 -12 -16v-48q0 -16 12 -16l60 -12q24 0 24 -20q16 -48 28 -68q12 -16 0 -36l-36 -48q-8 -16 4 -20l36 -36q4 -12 20 -4l48 36q20 12 36 0q32 -16 48 -20q32 -12 20 -40q-8 -28 -36 -20q-16 4 -48 20 l-32 -24q-56 -44 -100 8l-36 36q-48 40 -12 100l24 32q-4 8 -10 24t-6 24l-44 4q-64 16 -64 80zM648 804v68q0 76 76 88l60 12q12 32 32 68l-36 52q-48 64 8 120l48 48q56 56 120 8l48 -36q48 24 72 32l12 60q12 76 88 76h68q80 0 92 -76l12 -60q32 -12 68 -32l52 36 q64 48 120 -8l44 -48q60 -60 12 -120l-36 -48q24 -48 28 -72l60 -12q80 -12 80 -88v-68q0 -80 -80 -92l-60 -12q-16 -48 -28 -68l36 -52q44 -64 -12 -120l-48 -48q-56 -56 -116 -8l-52 36q-56 -28 -68 -32l-12 -60q-12 -76 -92 -76h-68q-76 0 -88 76l-12 64q-28 4 -68 28 l-52 -36q-64 -48 -120 8l-48 48q-56 56 -8 120l36 52q-20 36 -32 68l-60 12q-76 12 -76 92zM712 804q0 -28 24 -32l80 -12q16 -8 24 -24q12 -52 36 -92q12 -20 0 -32l-48 -68q-12 -20 4 -36l48 -48q20 -20 40 -4l64 48q16 8 36 0q28 -16 92 -40q20 0 20 -24l16 -80 q4 -24 28 -24h68q28 0 32 24l12 80q8 16 24 24q40 8 92 40q20 8 32 -4l68 -44q20 -16 36 0l48 52q20 12 4 36l-48 68q-8 16 0 32q16 28 40 92q0 16 24 24l80 12q24 8 24 32v68q0 20 -24 28l-80 12q-24 8 -24 24q-8 40 -40 92q-8 20 4 32l44 68q16 20 -4 40l-48 48 q-20 16 -36 0l-68 -44q-12 -12 -32 -4q-44 28 -92 40q-16 8 -24 24l-12 80q-4 24 -32 24h-68q-24 0 -28 -24l-16 -80q0 -16 -20 -24q-56 -12 -92 -40q-20 -8 -36 4l-64 48q-16 12 -40 -4l-48 -48q-16 -24 -4 -40l48 -68q12 -12 4 -32q-28 -36 -40 -92q-8 -16 -24 -24 l-80 -12q-24 -4 -24 -28v-68zM1012 836q0 80 58 140t142 60q80 0 138 -60t62 -140q0 -80 -60 -140t-140 -60q-84 0 -142 60t-58 140zM1084 784q40 -84 128 -84q56 0 96 40t40 96q0 92 -84 124q-84 36 -148 -28t-32 -148z" />
<glyph unicode="@" d="M476 1416q0 -252 148 -504q12 -144 80 -220q60 -72 148 -72q68 0 116 52t48 132q0 120 -60 212q40 192 40 320q0 172 -88 300q-84 120 -200 128h-4q-136 0 -192 -120q-36 -80 -36 -228zM560 1416q0 124 28 192q32 76 116 76q80 -8 136 -96q72 -100 72 -252 q4 -112 -36 -304q-88 -52 -188 -64q-128 224 -128 448zM712 892q108 20 180 60q40 -72 40 -148q0 -104 -80 -104q-44 0 -84 44q-40 52 -56 148zM1100 476q0 -80 48 -132t116 -52q88 0 148 72q68 80 80 220q148 260 148 504q0 148 -36 228q-56 120 -192 120h-4 q-112 0 -200 -128t-88 -300q0 -120 40 -320q-60 -100 -60 -212zM1184 476q0 76 40 148q84 -44 180 -56q-16 -100 -56 -152q-40 -44 -84 -44q-80 0 -80 104zM1204 1008q0 152 72 252q56 88 136 96q84 0 116 -76q28 -68 28 -192q0 -220 -128 -448q-100 12 -188 64 q-40 200 -36 304z" />
<glyph unicode="A" d="M408 416v1216q0 32 24 54t52 22h680q76 0 128 -52l236 -240q52 -52 52 -124v-876q0 -32 -22 -54t-50 -22h-1024q-28 0 -52 22t-24 54zM508 440h976v780h-320q-28 0 -50 22t-22 50v316h-584v-1168zM604 584q20 76 144 140q16 8 20 -4v-4q40 68 80 152q56 108 80 200 q-25 88 -25 152q0 38 9 68q8 28 32 28h16q16 0 24 -12q16 -8 8 -52q0 -4 -4 -4q4 -4 4 -8v-20q0 -16 -2 -46t-4 -54t-6 -48q44 -132 112 -180q24 -24 64 -44q32 4 88 4q112 0 136 -36q8 -16 0 -40l-4 -4q0 -28 -52 -28q-88 0 -188 56q-168 -20 -296 -64q-116 -200 -184 -200 q-16 0 -24 4l-16 12q-4 0 -8 4v12q-4 8 -4 16zM652 576q40 20 104 120q-80 -64 -104 -120zM860 776q128 44 216 60l-20 20q-60 48 -96 132q-24 -76 -64 -148q-12 -24 -36 -64zM952 1176q0 8 2 18t6 18q0 8 2 18t2 14t4 8l-4 4q0 16 -8 24q-7 -19 -7 -53q0 -22 3 -51z M1188 1316h288q-8 24 -16 32l-240 240q-12 12 -32 16v-288zM1248 804q60 -20 92 -20h16l-4 4q-16 16 -104 16z" />
<glyph unicode="B" d="M408 416v1216q0 32 24 54t52 22h680q76 0 128 -52l236 -240q52 -52 52 -124v-876q0 -32 -22 -54t-50 -22h-1024q-28 0 -52 22t-24 54zM508 440h976v780h-320q-28 0 -50 22t-22 50v316h-584v-1168zM728 536v80h68v424h-68v80h280q68 0 96 -12q108 -48 108 -176 q0 -136 -112 -176q-28 -12 -92 -12h-104v-128h72v-80h-248zM904 832h92q28 0 60 8q48 24 48 92q0 64 -44 88q-20 16 -64 16h-92v-204zM1188 1316h288q-8 24 -16 32l-240 240q-12 12 -32 16v-288z" />
<glyph unicode="C" d="M408 424v1220q0 28 22 50t54 22h680q76 0 128 -52l236 -236q52 -52 52 -128v-876q0 -32 -22 -52t-50 -20h-1024q-32 0 -54 22t-22 50zM508 448h976v780h-320q-28 0 -50 22t-22 50v320h-584v-1172zM704 668v48q0 24 24 24h536q24 0 24 -24v-48q0 -24 -24 -24h-536 q-24 0 -24 24zM704 864v48q0 24 24 24h536q24 0 24 -24v-48q0 -24 -24 -24h-536q-24 0 -24 24zM704 1060v48q0 24 24 24h536q24 0 24 -24v-48q0 -28 -24 -28h-536q-24 0 -24 28zM1188 1328h288q-4 16 -16 28l-240 240q-12 12 -32 16v-284z" />
<glyph unicode="D" d="M408 424v1220q0 28 22 50t54 22h680q76 0 128 -52l236 -236q52 -52 52 -128v-876q0 -32 -22 -52t-50 -20h-1024q-32 0 -54 22t-22 50zM508 448h976v780h-320q-28 0 -50 22t-22 50v320h-584v-1172zM604 740v292q0 40 30 70t70 30h292q40 0 68 -30t28 -70v-292 q0 -40 -28 -68t-68 -28h-292q-40 0 -70 28t-30 68zM1140 852v68l204 204q8 8 16 8t8 -4q16 -4 16 -20v-440q0 -20 -16 -24h-8q-12 0 -16 8zM1188 1328h288q-4 16 -16 28l-240 240q-12 12 -32 16v-284z" />
<glyph unicode="E" d="M408 416v1216q0 32 24 54t52 22h680q76 0 128 -52l236 -240q52 -52 52 -124v-876q0 -32 -22 -54t-50 -22h-1024q-28 0 -52 22t-24 54zM508 440h976v780h-320q-28 0 -50 22t-22 50v316h-584v-1168zM588 1040v80h228v-80h-68l76 -332q0 -8 2 -20t2 -16v-16h4l4 16q0 4 2 16 t2 20l112 412h88l108 -412q0 -4 2 -18t6 -18v-16h4v16q4 4 6 18t2 18l76 332h-72v80h232v-80h-56l-124 -504h-120l-100 368q-4 16 -4 36l-4 20h-4v-20q0 -12 -8 -36l-96 -368h-124l-124 504h-52zM1188 1316h288q-8 24 -16 32l-240 240q-12 12 -32 16v-288z" />
<glyph unicode="F" d="M0 296q0 -24 20 -44t44 -20h384q24 0 44 20t20 44t-20 44q-16 20 -44 20h-320v320q0 24 -20 44q-16 20 -44 20t-44 -20q-20 -20 -20 -44v-384zM0 1384q0 -24 20 -44t44 -20t44 20t20 44v320h320q24 0 44 20t20 44t-20 44q-16 20 -44 20h-384q-28 0 -44 -20 q-20 -20 -20 -44v-384zM1536 296q0 -24 20 -44t44 -20h384q24 0 44 20t20 44v384q0 24 -20 44q-16 20 -44 20t-44 -20q-20 -20 -20 -44v-320h-320q-28 0 -44 -20q-20 -20 -20 -44zM1536 1768q0 -24 20 -44t44 -20h320v-320q0 -24 20 -44t44 -20t44 20t20 44v384q0 24 -20 44 q-16 20 -44 20h-384q-28 0 -44 -20q-20 -20 -20 -44z" />
<glyph unicode="G" d="M272 524v192q0 48 48 48h316q48 0 48 -48v-192q0 -20 -14 -34t-34 -14h-316q-16 0 -32 14t-16 34zM272 928v192q0 48 48 48h316q48 0 48 -48v-192q0 -48 -48 -48h-316q-48 0 -48 48zM272 1332v192q0 20 16 34t32 14h316q20 0 34 -14t14 -34v-192q0 -48 -48 -48h-316 q-48 0 -48 48zM820 524v192q0 48 48 48h312q48 0 48 -48v-192q0 -48 -48 -48h-312q-48 0 -48 48zM820 928v192q0 48 48 48h312q48 0 48 -48v-192q0 -48 -48 -48h-312q-48 0 -48 48zM820 1332v192q0 48 48 48h312q48 0 48 -48v-192q0 -48 -48 -48h-312q-48 0 -48 48z M1364 524v192q0 48 48 48h316q48 0 48 -48v-192q0 -20 -16 -34t-32 -14h-316q-20 0 -34 14t-14 34zM1364 928v192q0 48 48 48h316q48 0 48 -48v-192q0 -48 -48 -48h-316q-48 0 -48 48zM1364 1332v192q0 20 14 34t34 14h316q16 0 32 -14t16 -34v-192q0 -48 -48 -48h-316 q-48 0 -48 48z" />
<glyph unicode="H" d="M692 692q-18 20 -18 41t18 43l248 248l-248 248q-18 20 -18 41t18 43q20 18 41 18t43 -18l248 -248l248 248q20 18 41 18t43 -18q18 -22 18 -43t-18 -41l-248 -248l248 -248q18 -22 18 -43t-18 -41q-22 -18 -43 -18t-41 18l-248 248l-248 -248q-22 -18 -43 -18t-41 18z " />
<glyph unicode="I" d="M476 988q0 -64 4 -88v-120q12 -148 88 -228q80 -80 228 -84q36 -4 116 -4h88h32h28h88q84 0 120 4q144 4 228 84q80 84 84 228q4 36 4 120v88v28v32v88q0 80 -4 116q-4 152 -84 228t-228 88h-120q-24 4 -88 4h-28h-32q-64 0 -88 -4h-116q-152 -12 -228 -88t-88 -228v-116 q-4 -24 -4 -88v-32v-28zM540 852v120v44v44v120q0 124 24 184q20 44 48 72q32 28 72 48q60 24 184 24h120h44h44h120q124 0 180 -24q44 -16 76 -48q36 -44 48 -72q20 -60 24 -184v-120v-44v-44v-120q-4 -124 -24 -180q-12 -32 -48 -76q-44 -36 -76 -48q-56 -20 -180 -24 h-120h-44h-44h-120q-124 4 -184 24q-28 12 -72 48q-32 32 -48 76q-24 56 -24 180zM752 1024q0 112 80 192t192 80t192 -80t80 -192t-80 -192t-192 -80t-192 80t-80 192zM820 1024q0 -84 60 -144t144 -60t144 60t60 144t-60 144t-144 60t-144 -60t-60 -144zM1268 1324 q0 68 72 68q28 0 48 -20t20 -48t-20 -48t-48 -20t-50 20t-22 48z" />
<glyph unicode="J" d="M36 1024q0 412 288 700t700 288t700 -288t288 -700t-288 -700t-700 -288t-700 288t-288 700zM104 1024q0 -380 270 -650t650 -270t650 270t270 650t-270 650t-650 270t-650 -270t-270 -650zM476 988q0 -64 4 -88v-120q12 -148 88 -228q80 -80 228 -84q36 -4 116 -4h88h32 h28h88q84 0 120 4q144 4 228 84q80 84 84 228q4 36 4 120v88v28v32v88q0 80 -4 116q-4 152 -84 228t-228 88h-120q-24 4 -88 4h-28h-32q-64 0 -88 -4h-116q-152 -12 -228 -88t-88 -228v-116q-4 -24 -4 -88v-32v-28zM540 852v120v44v44v120q0 124 24 184q20 44 48 72 q32 28 72 48q60 24 184 24h120h44h44h120q124 0 180 -24q44 -16 76 -48q36 -44 48 -72q20 -60 24 -184v-120v-44v-44v-120q-4 -124 -24 -180q-12 -32 -48 -76q-44 -36 -76 -48q-56 -20 -180 -24h-120h-44h-44h-120q-124 4 -184 24q-28 12 -72 48q-32 32 -48 76 q-24 56 -24 180zM752 1024q0 112 80 192t192 80t192 -80t80 -192t-80 -192t-192 -80t-192 80t-80 192zM820 1024q0 -84 60 -144t144 -60t144 60t60 144t-60 144t-144 60t-144 -60t-60 -144zM1268 1324q0 68 72 68q28 0 48 -20t20 -48t-20 -48t-48 -20t-50 20t-22 48z" />
<glyph unicode="K" d="M80 68v220q0 96 88 136l76 40q-76 96 -76 224v232q-68 8 -68 72v88q0 28 20 48t48 20v20q0 92 68 148l4 8q92 168 292 180q16 128 90 232t186 160q20 56 76 56h116v28h60v-28h116q56 0 76 -56q204 -108 260 -320q160 -20 270 -138t118 -278q40 -8 62 -42q16 -25 16 -55 q0 -11 -2 -23l-36 -204q-4 -36 -34 -60t-66 -24h-16l-60 12q-68 -148 -168 -216v-4l240 -116q84 -44 84 -140v-216h-1468v-4h-372zM144 128h92v32h64v-32h132v212v4q-72 16 -140 72l-100 -48q-48 -20 -48 -80v-160zM164 992q0 -4 4 -8v104q-4 -4 -4 -8v-88zM228 688 q0 -100 62 -178t158 -106q24 68 88 100l252 124l60 24v28q-80 48 -156 168h-384v220h248q-44 8 -68 44q-24 35 -24 73q0 27 12 55q16 24 24 32h-36v24h-108q-52 0 -90 -36t-38 -92v-480zM340 1356q8 4 16 4h108v60l64 20q-108 -4 -188 -84zM372 912h284q-16 28 -48 92h-236 v-92zM496 132h136v44h60v-44h676v44h60v-44h140v204q0 80 -72 108l-284 140q-16 -40 -28 -56q0 -4 -4 -4q0 -4 -2 -4t-2 -4l-4 -4h-4v-8l-8 -8h-4l-8 -8q-4 0 -4 -4l-8 -4l-4 -4q-4 -4 -8 -4t-12 -8h-4q-8 0 -12 -4h-12q-4 -4 -8 -4l-8 -4h-8h-8h-16h-20h-4h-12l-4 4h-4 q-8 0 -8 4h-8q-8 0 -12 4h-4q-4 0 -12 8h-4l-12 8l-4 4l-8 8l-8 4l-12 12l-8 8l-4 4q0 4 -8 12v4l-12 12l-8 16v4l-4 8v8l-4 4l-288 -140q-68 -32 -68 -108v-208zM524 1336h1012v40l-68 16v56q0 256 -216 376v-184h-60v236q0 16 -16 16h-116v-352h-60v352h-116 q-16 0 -16 -16v-236h-60v184q-216 -132 -216 -376v-56l-68 -20v-36zM532 1212q-5 -15 -6 -29q0 -19 10 -35q16 -16 32 -20q-16 64 -20 104q-12 -12 -16 -20zM608 1272q0 -52 28 -172q48 -132 108 -224t116 -132t96 -52t76 -12q52 0 106 22t138 124t148 278q28 76 28 168 h-844zM700 1384v60h660v-60h-660zM908 640q0 -52 34 -88t86 -36h16h8h4q8 0 8 4h4q4 0 8 4q28 8 56 44l4 8l4 4v4q4 4 4 8l4 4v8q0 4 4 12v16v4v12q-60 -28 -124 -28t-120 28v-8zM1240 696q48 -68 104 -104l44 -20q24 -12 56 -12q148 0 260 220l36 204h-44q-104 0 -232 60 q-92 -244 -224 -348zM1496 1128q12 4 28 20q9 16 9 35q0 14 -5 29q-4 8 -16 20q-8 -72 -16 -104zM1516 508l8 -4q104 -56 104 -164v-208h76v28h64v-28h92v156q0 56 -52 84l-240 112q-12 8 -28 32q-4 -4 -12 -4t-12 -4zM1524 1512q4 -4 4 -20q240 -44 296 -320l12 -4 q-12 128 -98 224t-214 120zM1536 1080q81 -36 160 -36q26 0 52 4h4l16 84q-28 200 -172 276v-136h-36q8 -8 24 -32q12 -28 12 -55q0 -38 -24 -73q-24 -24 -36 -32zM1776 824l60 -8q36 -8 44 32l36 204q1 7 1 12q0 29 -33 36l-56 8z" />
<glyph unicode="L" d="M548 1376q0 56 36 92q32 32 96 32t96 -32t40 -92q0 -52 -40 -92q-36 -36 -96 -36t-96 36t-36 92zM556 612v584q0 8 8 16t20 8h192q4 0 20 -8q4 -4 4 -16v-584q0 -16 -4 -20q-8 -4 -20 -4h-192q-16 0 -20 4q-8 8 -8 20zM596 1376q0 -32 24 -56q28 -20 60 -20t60 20 q24 24 24 56t-24 56q-20 20 -60 20q-32 0 -60 -20q-24 -24 -24 -56zM608 636h144v536h-144v-536zM860 600v12v84v188v196v112v12q0 8 8 8l8 8h8h196q8 0 16 -8t8 -16v-16q20 20 60 40q36 12 88 12q64 0 108 -16q56 -32 76 -60q32 -36 48 -88q16 -48 16 -124v-332 q0 -16 -4 -20t-20 -4h-192q-12 0 -20 4q-4 4 -4 20v312q0 80 -32 92q-28 16 -44 16q-32 0 -52 -24q-16 -16 -24 -32l-4 -8v-8v-24v-324q0 -12 -8 -20t-16 -8h-196q-8 0 -8 4l-8 4zM908 636h144v300q0 8 2 18t2 14q0 12 8 28q16 44 48 60q32 24 72 24q64 0 92 -40 q32 -44 32 -116v-288h144v308q0 56 -12 104q-8 36 -40 72q-24 32 -60 48t-88 16q-64 0 -96 -28q-36 -24 -52 -52l-4 -4q-4 -4 -4 -8l-16 -8h-4q-4 0 -12 4l-4 4q-4 4 -4 8q-4 0 -4 8v12v52h-144q0 -12 2 -50t2 -66v-156q0 -28 -2 -80t-2 -76v-108z" />
<glyph unicode="M" d="M36 1024q0 412 288 700t700 288t700 -288t288 -700t-288 -700t-700 -288t-700 288t-288 700zM104 1024q0 -380 270 -650t650 -270t650 270t270 650t-270 650t-650 270t-650 -270t-270 -650zM548 1376q0 56 36 92q32 32 96 32t96 -32t40 -92q0 -52 -40 -92 q-36 -36 -96 -36t-96 36t-36 92zM556 612v584q0 8 8 16t20 8h192q4 0 20 -8q4 -4 4 -16v-584q0 -16 -4 -20q-8 -4 -20 -4h-192q-16 0 -20 4q-8 8 -8 20zM596 1376q0 -32 24 -56q28 -20 60 -20t60 20q24 24 24 56t-24 56q-20 20 -60 20q-32 0 -60 -20q-24 -24 -24 -56z M608 636h144v536h-144v-536zM860 600v12v84v188v196v112v12q0 8 8 8l8 8h8h196q8 0 16 -8t8 -16v-16q20 20 60 40q36 12 88 12q64 0 108 -16q56 -32 76 -60q32 -36 48 -88q16 -48 16 -124v-332q0 -16 -4 -20t-20 -4h-192q-12 0 -20 4q-4 4 -4 20v312q0 80 -32 92 q-28 16 -44 16q-32 0 -52 -24q-16 -16 -24 -32l-4 -8v-8v-24v-324q0 -12 -8 -20t-16 -8h-196q-8 0 -8 4l-8 4zM908 636h144v300q0 8 2 18t2 14q0 12 8 28q16 44 48 60q32 24 72 24q64 0 92 -40q32 -44 32 -116v-288h144v308q0 56 -12 104q-8 36 -40 72q-24 32 -60 48t-88 16 q-64 0 -96 -28q-36 -24 -52 -52l-4 -4q-4 -4 -4 -8l-16 -8h-4q-4 0 -12 4l-4 4q-4 4 -4 8q-4 0 -4 8v12v52h-144q0 -12 2 -50t2 -66v-156q0 -28 -2 -80t-2 -76v-108z" />
<glyph unicode="N" d="M272 524v148q0 48 48 48h144q48 0 48 -48v-148q0 -48 -48 -48h-144q-16 0 -32 14t-16 34zM272 948v148q0 48 48 48h144q48 0 48 -48v-148q0 -48 -48 -48h-144q-48 0 -48 48zM272 1376v148q0 20 16 34t32 14h144q48 0 48 -48v-148q0 -48 -48 -48h-144q-48 0 -48 48z M752 524v148q0 48 48 48h928q48 0 48 -48v-148q0 -20 -16 -34t-32 -14h-928q-16 0 -32 14t-16 34zM752 948v148q0 48 48 48h928q48 0 48 -48v-148q0 -48 -48 -48h-928q-48 0 -48 48zM752 1376v148q0 20 16 34t32 14h928q16 0 32 -14t16 -34v-148q0 -48 -48 -48h-928 q-48 0 -48 48z" />
<glyph unicode="O" d="M512 1164q0 104 48 188q60 92 136 136q84 48 188 48q100 0 188 -52q80 -48 132 -132q48 -84 48 -188q0 -68 -24 -128q-28 -72 -64 -112l16 -16h44l240 -240q20 -22 20 -43t-20 -41t-41 -20t-43 20l-240 240v44l-16 16q-40 -36 -112 -64q-60 -24 -128 -24q-108 0 -188 52 q-84 48 -132 132q-52 80 -52 184zM628 1164q0 -64 32 -128q40 -56 96 -92q60 -36 128 -36t128 36q52 32 92 92q36 60 36 128q0 72 -36 132q-40 60 -92 92q-64 32 -128 32t-128 -32q-56 -36 -96 -92q-32 -64 -32 -132z" />
<glyph unicode="P" d="M476 780v544q0 52 38 90t90 38h916q48 0 84 -34t36 -82v-576q0 -44 -32 -74t-76 -30h-928q-52 0 -90 36t-38 88zM552 780q0 -16 20 -32q20 -20 32 -20h944q16 0 16 20v32v520l-484 -384q0 -8 -8 -8l-4 -4h-8h-12l-4 4l-8 8l-484 384v-520zM568 1380l492 -392l488 392 h-960h-20z" />
<glyph unicode="Q" d="M136 288v1472q0 88 64 154t152 66h1000q88 0 154 -66t66 -154v-644q-12 4 -36 4q-8 0 -20 -2t-16 -2v644q0 64 -42 108t-106 44h-1000q-60 0 -104 -44t-44 -108v-1472q0 -64 44 -108t104 -44h1000q108 0 144 108q28 0 40 -4q4 0 14 2t14 2q-12 -76 -72 -126t-140 -50 h-1000q-88 0 -152 66t-64 154zM400 476q0 32 32 32q36 0 36 -32q0 -36 -36 -36q-32 0 -32 36zM400 644q0 36 32 36q36 0 36 -36q0 -32 -36 -32q-32 0 -32 32zM400 812q0 36 32 36q36 0 36 -36q0 -32 -36 -32q-32 0 -32 32zM488 476q0 32 36 32h604q8 -20 32 -68h-636 q-36 0 -36 36zM488 644q0 36 36 36h580v-24v-44h-580q-36 0 -36 32zM488 812q0 36 36 36h624q-4 -8 -28 -68h-596q-36 0 -36 32zM684 1336v108h136v136h104v-136h136v-108h-136v-136h-104v136h-136zM1160 656q0 156 110 268t266 112t266 -112t110 -268q0 -160 -110 -270 t-266 -110t-266 110t-110 270zM1228 656q0 -128 90 -220t218 -92t218 90t90 222q0 128 -90 218t-218 90t-218 -90t-90 -218zM1312 538q-8 14 0 30l116 188q24 32 48 -4l112 -228h-252q-16 0 -24 14zM1516 748q0 36 32 36q36 0 36 -36q0 -32 -36 -32q-32 0 -32 32zM1548 632 l60 84q15 19 30 19l34 -23l84 -128q12 -16 2 -38t-34 -22h-116z" />
<glyph unicode="R" d="M684 964q-1 12 -1 23q0 117 113 165q8 8 52 8q36 0 52 -12q32 -20 40 -60l-68 -12q0 8 -8 16l-8 4h-8q-20 0 -28 -8q-70 -24 -70 -94q0 -10 2 -22q8 -60 76 -114t200 -74q104 -16 164 -54t74 -66t14 -56v-11q0 -96 -128 -157q-20 20 -68 40q132 48 132 124 q-8 84 -196 112q-100 16 -172 50t-104 74t-44 70t-16 54zM752 1500q0 116 80 196t192 80t192 -80t80 -196q0 -104 -68 -182t-168 -94v-404h-72v404q-100 16 -168 94t-68 182zM768 608q0 28 16 60q20 32 64 60q52 -24 96 -32q-68 -24 -92 -52q-12 -16 -20 -40q0 -4 2 -8t2 -8 q8 -24 16 -32q48 -68 180 -96q136 -28 136 -124q0 -48 -36 -80q-16 -16 -24 -20q-32 -16 -52 -24q-4 -4 -12 -4t-12 -4h-16q-4 4 -12 4t-12 4q-112 36 -112 124q0 28 20 60l72 -24q-20 -16 -28 -36q0 -28 48 -52v84q4 -4 16 -4q24 -8 48 -20v-60l4 4q12 4 28 20t16 28 q-8 44 -88 60q-148 32 -212 112q-4 4 -10 14t-10 14q-17 33 -17 61q0 6 1 11zM836 1500q0 -80 54 -136t134 -56t136 56t56 136q0 76 -56 134t-136 58q-76 0 -132 -56t-56 -136zM888 1496q0 12 8 20t16 8h88v88q0 8 8 16q4 8 20 8q12 0 16 -8q8 -8 8 -16v-88h88q8 0 16 -8 q8 -4 8 -20q0 -12 -8 -16q-4 -8 -16 -8h-88v-88q0 -4 -8 -20q-8 -8 -16 -8q-12 0 -20 8q-8 16 -8 20v88h-88q-12 0 -16 8q-8 8 -8 16zM992 508v180q8 -4 24 -4q32 -8 40 -8v-168q-4 -4 -12 -4t-12 -4l-8 -4q-24 8 -32 12zM1104 804q184 52 192 168q2 11 2 22q0 70 -70 94 q-28 8 -44 4q-8 -8 -8 -16l-68 12q8 40 40 60q20 12 46 12t40 -2t18 -6q113 -47 113 -165q0 -11 -1 -23q-12 -124 -164 -196q-36 16 -96 36z" />
<glyph unicode="S" d="M340 1112v528h540v-396q0 -356 -120 -568q-124 -208 -360 -268v176q88 48 128 164q44 120 44 308v56h-232zM1236 1112v528h540v-396q0 -356 -120 -568q-124 -208 -360 -268v176q88 48 128 164q44 120 44 308v56h-232z" />
<glyph unicode="T" d="M340 408v396q0 356 116 568q124 208 352 268v-176q-84 -48 -124 -164q-40 -108 -40 -308v-56h224v-528h-528zM1228 408v396q0 356 116 568q124 208 352 268v-176q-84 -48 -124 -164q-40 -108 -40 -308v-56h224v-528h-528z" />
<glyph unicode="U" d="M272 456v908q0 44 44 44h132h16v120q0 44 44 44h1224q44 0 44 -44v-944q0 -44 -44 -44t-44 44v896h-1136v-72h1016q48 0 48 -44v-908q0 -48 -48 -48h-1252q-44 0 -44 48zM360 496h1168v824h-1168v-824z" />
<glyph unicode="V" d="M480 708q-8 24 0 48q16 24 28 32q20 12 40 12h4h20q4 0 10 -2t10 -2q8 0 20 2t16 2q16 0 40 8q-28 16 -48 52q-20 24 -32 64q0 4 -4 16q0 12 4 16q-32 32 -52 84q-20 48 -20 92v4q0 16 4 24q8 16 12 20q-4 8 -8 22t-4 22t-2 24t-2 24q0 32 12 68l24 60q12 16 24 24 q24 8 32 8v4h4q12 0 28 -8q12 -4 24 -16q52 -64 128 -108q72 -40 156 -60q8 48 28 88q28 48 56 72q32 28 80 48q44 16 96 16q40 0 84 -12q56 -24 76 -40q16 4 40 12q16 4 32 20q4 0 10 2t10 2q4 4 16 4q4 0 12 -2t12 -2q4 -4 20 -12q16 -16 20 -32q8 -20 0 -40l24 -24 q8 -16 8 -32q0 -4 -2 -12t-2 -12l-4 -8q-4 -8 -8 -8q-20 -32 -40 -48q-20 -24 -44 -44q0 -108 -44 -220q-40 -100 -124 -192q-80 -88 -196 -136q-108 -52 -260 -52q-60 0 -92 4q-28 4 -84 20t-84 28q-12 4 -80 44q-12 8 -28 32zM548 732q52 -36 140 -64q88 -20 160 -20 q136 0 236 48q108 48 176 128q72 80 108 172q36 100 36 192v12v12q36 32 52 48q24 20 44 52q-28 -16 -52 -20q-40 -8 -60 -8q32 12 56 44q20 28 32 60q-20 -12 -60 -28q-36 -16 -64 -20q-24 24 -64 44q-32 16 -80 16q-84 0 -140 -56t-56 -132v-24q0 -4 2 -10t2 -10 q-44 0 -116 16q-72 20 -112 44q-48 24 -96 60q-56 48 -80 80q-16 -32 -20 -48q-8 -32 -8 -48q0 -48 24 -92q24 -40 64 -68q-20 0 -44 8q-32 8 -44 16v-4q0 -64 44 -120q48 -52 112 -64q-4 -4 -12 -4t-12 -4h-24h-20q-4 0 -10 2t-10 2q20 -56 72 -92q44 -40 112 -40 q-44 -32 -112 -60q-60 -24 -132 -24q-16 0 -24 4h-20z" />
<glyph unicode="W" d="M36 1024q0 412 288 700t700 288t700 -288t288 -700t-288 -700t-700 -288t-700 288t-288 700zM104 1024q0 -380 270 -650t650 -270t650 270t270 650t-270 650t-650 270t-650 -270t-270 -650zM480 720q16 24 28 32q20 12 40 12h4h4h16h20h40q8 4 20 4t16 4q-32 24 -48 52 q-24 40 -32 64q0 4 -4 16q0 12 4 20q-36 36 -52 80q-20 48 -20 96q0 4 2 12t2 12l12 24q-8 24 -8 40q-8 32 -8 48q0 32 12 68q4 24 28 64q8 12 20 20q4 4 32 12h4q12 0 28 -8q20 -8 24 -16q52 -64 128 -108q72 -44 156 -60q8 56 28 88q20 36 56 72q32 28 80 48q44 16 96 16 q48 0 84 -12t80 -40l36 12q4 4 16 10t16 10q8 4 20 4q4 4 16 4q16 0 24 -4q4 0 10 -4t10 -8q12 -8 20 -32q8 -20 0 -40q12 -4 24 -24q8 -16 8 -32q0 -4 -4 -12v-8q-8 -16 -12 -20l-36 -48q-8 -8 -24 -22t-24 -22q0 -108 -44 -220t-124 -192q-72 -76 -196 -136 q-108 -52 -260 -52q-60 0 -88 4q-32 4 -88 20q-12 4 -40 14t-44 14q-28 12 -76 44q-20 12 -28 36q-12 16 -4 44zM548 696q76 -44 140 -60q80 -24 160 -24q132 0 240 48q116 60 172 128q72 76 108 176q36 96 36 188v12v12q8 8 28 24t28 24q12 12 44 52q-8 -4 -26 -10l-30 -10 q-40 -8 -56 -8q32 20 52 44q20 28 32 60q-20 -12 -60 -28q-36 -16 -64 -20q-32 32 -64 44q-32 16 -80 16q-84 0 -140 -56t-56 -132v-24q4 -4 4 -20q-56 0 -116 20q-48 8 -108 40q-48 20 -100 60q-44 36 -80 80q-16 -32 -20 -48t-4 -48q0 -52 24 -92q20 -36 60 -68 q-20 0 -44 8q-32 8 -44 16q0 -68 44 -124q52 -52 112 -64q-8 -4 -24 -4q-8 -4 -24 -4h-20q-8 4 -20 4q28 -64 72 -92q52 -40 112 -40q-44 -32 -112 -60q-52 -20 -132 -20h-24h-20z" />
<glyph unicode="X" d="M684 660q0 44 44 44h592q44 0 44 -44t-44 -44h-592q-44 0 -44 44zM724 1088q0 16 12 20l280 256q8 8 16 0l280 -256q20 -20 4 -40q-16 -8 -20 -8h-124v-252q0 -16 -16 -16h-264q-16 0 -16 16v252h-124q-28 0 -28 28z" />
<glyph unicode="Y" d="M272 504v972q0 32 28 68q36 28 68 28h468l140 -140h704q32 0 68 -28q28 -24 28 -64v-836q0 -40 -28 -68q-36 -28 -68 -28h-1312q-32 0 -68 28q-28 36 -28 68zM368 504h1312v836h-744l-28 24l-116 112h-424v-972z" />
<glyph unicode="Z" d="M340 428v1192q0 36 28 60q28 28 60 28h1192q32 0 60 -28q28 -24 28 -60v-1192q0 -36 -28 -60q-28 -28 -60 -28h-1192q-32 0 -60 28q-28 24 -28 60zM428 428h1192v1192h-1192v-1192zM512 604v44q0 20 12 32t32 12h84q16 0 32 -12q12 -12 12 -32v-44q0 -12 -12 -32 q-16 -12 -32 -12h-84q-20 0 -32 12q-12 20 -12 32zM512 868v44q0 20 12 32t32 12h84q16 0 32 -12q12 -12 12 -32v-44q0 -16 -12 -28q-16 -16 -32 -16h-84q-20 0 -32 16q-12 12 -12 28zM512 1136v44q0 16 12 28q16 16 32 16h84q8 0 32 -16q12 -12 12 -28v-44q0 -20 -12 -32 q-16 -12 -32 -12h-84q-20 0 -32 12t-12 32zM512 1400v44q0 16 12 28q12 16 32 16h84q16 0 32 -16q12 -12 12 -28v-44q0 -20 -12 -32q-16 -12 -32 -12h-84q-20 0 -32 12t-12 32zM1364 604v44q0 20 16 32q12 12 28 12h84q20 0 32 -12t12 -32v-44q0 -12 -12 -32 q-12 -12 -32 -12h-84q-16 0 -28 12q-16 16 -16 32zM1364 868v44q0 20 16 32q12 12 28 12h84q20 0 32 -12t12 -32v-44q0 -16 -12 -28q-12 -16 -32 -16h-84q-16 0 -28 16q-16 12 -16 28zM1364 1136v44q0 16 16 28q16 16 28 16h84q16 0 32 -16q12 -12 12 -28v-44q0 -20 -12 -32 t-32 -12h-84q-16 0 -28 12q-16 12 -16 32zM1364 1400v44q0 16 16 28q12 16 28 16h84q20 0 32 -16q12 -12 12 -28v-44q0 -20 -12 -32t-32 -12h-84q-16 0 -28 12q-16 12 -16 32z" />
<glyph unicode="[" d="M272 600q0 -16 12 -24l268 -276q28 -28 52 0l328 328q16 16 16 40q-8 20 -28 28q-24 0 -36 -16l-304 -304l-220 224l248 248l72 -72q12 -20 36 -12t28 28q0 24 -12 36l-72 72l80 80l588 -588q4 -4 16 -12l360 -92q16 0 36 12q16 16 8 36l-108 368l-4 4q-4 4 -4 8 l-304 308l392 396q12 4 12 24q0 16 -12 28l-268 272q-12 12 -32 12q-12 0 -20 -8l-392 -396l-384 392q-12 12 -32 12q-16 0 -20 -12l-272 -272q-8 -16 -8 -28q0 -16 8 -24l388 -388l-404 -404q-12 -12 -12 -28zM380 1444l216 224l104 -104l-220 -224zM524 600q0 -56 56 -56 q52 0 52 56t-52 56q-56 0 -56 -56zM532 1292l220 220l804 -820l-212 -216zM1060 1300l84 88l76 -80q12 -12 36 -8q16 0 24 24q8 20 -8 36l-76 76l76 76l72 -76q24 -16 36 -12q20 4 28 28t-12 36l-72 76l100 104l220 -224l-368 -368zM1408 440l180 184l28 -92l-116 -116z M1580 396l56 56l24 -76z" />
<glyph unicode="]" d="M272 1024q0 152 60 292t160 240t240 160t292 60t292 -60t240 -160t160 -240t60 -292t-60 -292t-160 -240t-240 -160t-292 -60t-292 60t-240 160t-160 240t-60 292zM360 1024q0 -140 52 -260q52 -116 144 -208t208 -144t260 -52t260 52q128 56 208 144q92 92 144 208 q52 120 52 260q0 144 -52 260q-56 124 -144 212q-84 84 -208 140q-116 52 -260 52t-260 -52q-112 -52 -208 -140q-88 -88 -144 -212q-52 -116 -52 -260zM872 664q0 16 16 32q16 12 36 12h48v372h-48q-20 0 -36 16t-16 32t16 32q24 16 36 16h100q12 0 36 -16q16 -16 16 -32 v-420h48q20 0 36 -12q16 -16 16 -32t-16 -32t-36 -16h-200q-20 0 -36 16t-16 32zM916 1344q0 40 24 64q28 24 64 24t60 -24t24 -64q0 -36 -24 -60t-60 -24t-64 24q-24 24 -24 60z" />
<glyph unicode="^" d="M272 552v1140q0 40 32 64q32 28 76 16l604 -168q4 0 14 -2t18 -2t18 2t14 2l620 168q44 12 76 -16q32 -24 32 -64v-1140q0 -32 -24 -64q-20 -24 -56 -40l-624 -168q-8 -4 -28 -4q-12 -4 -28 -4q-20 0 -32 4q-4 0 -16 4h-8l-608 168q-36 16 -56 40q-24 32 -24 64zM368 552 q0 -4 4 -8l4 -4l600 -168v1140h-8h-8l-592 164v-1124zM464 828q4 16 24 28q24 8 36 4l328 -92q16 -4 28 -24q8 -16 4 -36q-8 -16 -16 -24q-16 -8 -28 -8h-8h-4l-332 92q-16 8 -24 24q-8 12 -8 36zM464 1108q4 16 24 28q16 12 36 4l328 -92q12 -4 28 -20q8 -24 4 -36 q-4 -16 -16 -28q-16 -8 -28 -8h-8q-4 0 -4 4l-332 92q-16 4 -24 20q-8 12 -8 36zM464 1388q8 24 24 28q12 8 36 8l328 -92q16 -4 28 -24q8 -24 4 -36q-8 -20 -16 -24q-8 -8 -28 -8h-8h-4l-332 92q-16 4 -24 24q-8 8 -8 32zM1072 376l596 164q4 0 8 4t4 8v1124l-608 -164 v-1136zM1168 708q0 28 8 36q8 16 24 24l332 92q16 4 32 -4q20 -12 24 -28q4 -12 -4 -36q-12 -20 -28 -24l-328 -92h-8h-4q-12 0 -28 8q-16 16 -20 24zM1168 992q0 24 8 36q8 16 24 20l332 92q20 8 32 -4q20 -12 24 -28q4 -12 -4 -36q-16 -16 -28 -20l-328 -92q-4 -4 -8 -4 h-4q-12 0 -28 8q-16 16 -20 28zM1168 1272q0 24 8 36q8 20 24 24l332 92q24 0 32 -8q16 -4 24 -28q4 -16 -4 -32q-12 -20 -28 -24l-328 -92h-8h-4q-20 0 -28 8q-16 8 -20 24z" />
<glyph unicode="_" d="M272 740v804q0 32 28 68q36 28 68 28h1312q32 0 68 -28q28 -36 28 -68v-804q0 -32 -28 -68q-36 -28 -68 -28h-608v-140h232q16 0 36 -12q12 -20 12 -36q0 -20 -12 -32q-24 -16 -36 -16h-560q-12 0 -36 16q-12 12 -12 32q0 16 12 36q20 12 36 12h232v140h-608 q-32 0 -68 28q-28 36 -28 68zM368 740h1312v804h-1312v-804z" />
<glyph unicode="`" d="M272 1024q0 152 60 292t160 240t240 160t292 60t292 -60t240 -160t160 -240t60 -292t-60 -292t-160 -240t-240 -160t-292 -60t-292 60t-240 160t-160 240t-60 292zM368 1024q0 -140 52 -256q44 -112 140 -208q92 -92 208 -144q128 -52 256 -52t256 52q116 52 208 144 q96 96 140 208q52 116 52 256t-52 256q-44 112 -140 208t-208 140q-116 52 -256 52t-256 -52q-112 -44 -208 -140t-140 -208q-52 -116 -52 -256zM656 696q-4 8 4 28l212 424q0 4 8 12l8 8l460 196q8 4 28 4q16 0 24 -12q12 -12 12 -24q0 -20 -4 -28l-224 -436q0 -4 -8 -12 l-8 -8l-452 -184q0 -4 -8 -4h-8q-12 0 -20 4q-4 0 -12 8q-12 12 -12 24zM800 800l256 100l-132 160zM1000 1116l132 -164l128 268z" />
<glyph unicode="a" d="M272 1040q0 -268 168 -468l44 36q-156 188 -156 432q0 268 184 462t448 214l-80 -140l48 -28l128 228h-48q-304 0 -520 -216t-216 -520zM648 820l16 48q68 -28 104 -28q108 0 108 92t-120 92h-36v48h36q40 0 72 20t32 60q0 72 -84 72q-52 0 -92 -32l-16 48q56 36 120 36 t100 -34t36 -78q0 -84 -88 -112q104 -20 104 -124q0 -56 -44 -98t-124 -42q-76 0 -124 32zM712 324l52 -16q108 -36 228 -36q304 0 520 216t216 520t-212 516l-40 -40q196 -196 196 -476t-200 -480t-480 -200q-92 0 -160 16l140 104l-32 44zM1024 784v480q120 12 132 12 q128 0 200 -64q68 -60 68 -172q0 -120 -72 -192q-68 -68 -212 -68q-84 0 -116 4zM1088 832h64q204 0 204 204v12q0 79 -48 126q-52 50 -148 50q-40 0 -72 -8v-384z" />
<glyph unicode="b" d="M556 1024q0 24 18 42t42 18h348v348q0 24 18 42t42 18t42 -18t18 -42v-348h348q24 0 42 -18t18 -42t-18 -42t-42 -18h-348v-348q0 -24 -18 -42t-42 -18t-42 18t-18 42v348h-348q-24 0 -42 18t-18 42z" />
<glyph unicode="c" d="M0 1024q0 -208 80 -400q76 -180 220 -324t324 -220q192 -80 400 -80t400 80q180 76 324 220t220 324q80 192 80 400t-80 400q-76 180 -220 324t-324 220q-192 80 -400 80t-400 -80q-180 -76 -324 -220t-220 -324q-80 -192 -80 -400zM128 1024q0 184 72 348t192 284 q116 120 284 196q152 68 348 68t348 -68q168 -76 284 -196q120 -120 192 -284t72 -348t-72 -348t-192 -284t-284 -192t-348 -72t-348 72t-284 192t-192 284t-72 348zM512 1024q0 -28 20 -48q16 -16 44 -16h720l-232 -232q-16 -16 -16 -44q0 -32 16 -48q20 -20 48 -20 q24 0 44 20l380 388l-380 388q-12 12 -20 16t-24 4t-24 -4q-16 -8 -24 -16q-16 -16 -16 -44t16 -48l236 -232h-724q-24 0 -44 -20t-20 -44z" />
<glyph unicode="d" d="M0 1024q0 -208 80 -400q76 -180 220 -324t324 -220q192 -80 400 -80t400 80q180 76 324 220t220 324q80 192 80 400t-80 400q-76 180 -220 324t-324 220q-192 80 -400 80t-400 -80q-180 -76 -324 -220t-220 -324q-80 -192 -80 -400zM128 1024q0 184 72 348t192 284 t284 192t348 72t348 -72t284 -192t192 -284t72 -348t-72 -348t-192 -288q-120 -120 -284 -192t-348 -72t-348 72t-284 192q-120 124 -192 288t-72 348zM516 1020l376 -388l24 -12q8 -4 24 -4t24 4q4 4 10 8t10 4q20 28 20 48q0 24 -20 44l-236 236h724q28 0 48 20 q16 16 16 44t-16 44q-20 20 -48 20h-720l232 232q20 20 20 44t-20 44q-16 20 -44 20q-32 0 -48 -20z" />
<glyph unicode="e" d="M476 992q0 32 36 32h920l-360 360q-8 8 -8 20t8 20t24 8t20 -8l408 -408q12 -12 12 -24q0 -8 -12 -20l-416 -416l-8 -8h-12h-12l-8 8q-8 4 -8 20t8 20l360 360h-916q-36 0 -36 36z" />
<glyph unicode="f" d="M476 592q0 -44 52 -44h1064q48 0 48 44v96q0 48 -48 48h-1064q-52 0 -52 -48v-96zM476 976q0 -20 16 -34t36 -14h1064q16 0 32 16t16 32v96q0 16 -16 32t-32 16h-1064q-20 0 -36 -14t-16 -34v-96zM476 1360q0 -48 52 -48h1064q48 0 48 48v96q0 44 -48 44h-1064 q-52 0 -52 -44v-96z" />
<glyph unicode="g" d="M288 388v1184q0 44 32 78t80 34h116q20 0 20 -20q0 -24 -20 -24h-116q-68 0 -68 -68v-1184q0 -28 20 -48t48 -20h1260q28 0 48 20t20 48v1184q0 68 -68 68h-120q-20 0 -20 24q0 20 20 20h120q44 0 78 -34t34 -78v-1184q0 -44 -34 -78t-78 -34h-1260q-48 0 -80 34t-32 78z M288 1392q0 20 20 20h1440q24 0 24 -20t-24 -20h-1440q-20 0 -20 20zM452 572q0 36 24 62t60 26t62 -26t26 -62t-26 -62t-62 -26t-60 26t-24 62zM452 848q0 36 24 62t60 26t62 -26t26 -62q0 -40 -26 -66t-62 -26t-60 26t-24 66zM452 1120q0 36 24 62t60 26t62 -26t26 -62 t-26 -62t-62 -26t-60 26t-24 62zM492 572q0 -44 44 -44q48 0 48 44t-48 44q-44 0 -44 -44zM492 848q0 -48 44 -48q48 0 48 48q0 44 -48 44q-44 0 -44 -44zM492 1120q0 -44 44 -44q48 0 48 44q0 48 -48 48q-44 0 -44 -48zM592 1564v240q0 24 20 24t20 -24v-240q0 -24 -20 -24 t-20 24zM684 1664q0 20 24 20h612q20 0 20 -20t-20 -20h-612q-24 0 -24 20zM772 572q0 36 26 62t62 26t62 -26t26 -62t-26 -62t-62 -26t-62 26t-26 62zM772 832q-16 16 0 32t32 0l36 -40l88 88q12 12 32 0q16 -16 0 -28l-104 -104q-16 -12 -28 0zM772 1120q0 36 26 62t62 26 t62 -26t26 -62t-26 -62t-62 -26t-62 26t-26 62zM816 572q0 -44 44 -44t44 44t-44 44t-44 -44zM816 1120q0 -44 44 -44t44 44q0 48 -44 48t-44 -48zM1092 552q-16 16 0 32t32 0l36 -40l88 88q16 16 28 0q16 -16 0 -32l-100 -100q-16 -20 -28 0zM1096 848q0 36 24 62t60 26 q40 0 64 -26t24 -62q0 -40 -24 -66t-64 -26q-36 0 -60 26t-24 66zM1100 1112q-16 16 0 32t32 0l36 -40l88 88q16 16 28 0t0 -28l-100 -104q-16 -12 -28 0zM1136 848q0 -48 44 -48q48 0 48 48q0 44 -48 44q-44 0 -44 -44zM1416 572q0 36 26 62t62 26t62 -26t26 -62t-26 -62 t-62 -26t-62 26t-26 62zM1416 848q0 36 26 62t62 26t62 -26t26 -62q0 -40 -26 -66t-62 -26t-62 26t-26 66zM1416 1120q0 36 26 62t62 26t62 -26t26 -62t-26 -62t-62 -26t-62 26t-26 62zM1416 1556v244q0 20 20 20t20 -20v-244q0 -20 -20 -20t-20 20zM1460 572q0 -44 44 -44 t44 44t-44 44t-44 -44zM1460 848q0 -48 44 -48t44 48q0 44 -44 44t-44 -44zM1460 1120q0 -44 44 -44t44 44q0 48 -44 48t-44 -48z" />
<glyph unicode="h" d="M408 424v1048q0 56 44 108q44 44 104 44h68v152h148v-152h572v152h148v-152h68q60 0 104 -44q44 -52 44 -108v-1048q0 -60 -44 -104q-40 -48 -104 -48h-1004q-60 0 -104 48q-44 44 -44 104zM556 424h1004v824h-1004v-824zM748 752h240v-252h140v252h216v144h-216v252 h-140v-252h-240v-144z" />
<glyph unicode="i" d="M820 576q0 12 8 20l396 396l-392 392q-8 8 -8 20t8 20t24 8t20 -8l412 -408q8 -16 8 -24q0 -4 -8 -20l-416 -416q0 -4 -4 -4t-8 -4h-12h-12l-8 8q-8 8 -8 20z" />
<glyph unicode="j" d="M856 560q-12 -24 8 -40t36 8l352 476q12 20 0 40l-352 476q-12 20 -40 8q-12 -20 -4 -40q128 -212 128 -464t-128 -464z" />
<glyph unicode="k" d="M548 424v1132q0 36 24 60t56 24h460l412 -408v-808q0 -36 -24 -60t-56 -24h-792q-32 0 -56 24t-24 60zM628 424h792v688h-460v444h-332v-1132zM1044 1192h376v8l-368 356h-8v-364z" />
<glyph unicode="l" d="M68 1052q32 0 88 4q52 4 192 4q28 0 82 2t78 2h12h20h64l12 -12q0 -8 -12 -12h-52q8 -132 96 -220h-60q-12 12 -28 36q-24 0 -32 4q-8 0 -20 2t-16 2l-16 4q4 4 16 4q4 0 10 2l12 4t14 2h20q-40 76 -44 164h-156q-36 0 -102 2t-90 2zM196 944h40q16 4 48 6t48 2h96h32 l12 -8q-4 -12 -12 -12h-32h-96q-16 0 -48 2t-48 6zM236 1316l384 16q112 100 264 100q148 0 258 -96t130 -236q20 72 80 118t136 46h16l8 -4h32h44l16 -4h-16q-4 0 -12 -2t-12 -2q56 -24 84 -52h52q68 0 92 -4h44q-20 0 -44 -4q-60 0 -92 -4h-40h-24h-32h-28l-8 8q0 4 8 4 h28q-48 36 -112 36q-84 0 -142 -56t-58 -136v-12v-16q8 -72 64 -120t132 -48q92 0 156 72h-28h-16q-8 0 -8 8q4 4 8 4h16h56q24 -4 60 -4l24 -4h-24q-16 -4 -52 -4q-4 -4 -10 -14t-10 -14l212 -8l-224 -8q-68 -60 -152 -60q-80 0 -142 50t-78 122q-24 -136 -132 -228 t-252 -92q-32 0 -44 4h-52q-12 0 -36 2t-36 6l-36 4q16 0 36 4h40q-84 32 -148 88q-24 4 -84 4q-32 0 -88 2t-72 2l-72 4q28 4 72 4q20 4 76 6t84 2h156h56l12 -12q0 -12 -12 -12h-52q84 -60 196 -60q140 0 242 98t102 238q0 136 -102 234t-242 98q-164 0 -264 -124h44h32 l8 -8q0 -12 -8 -12h-32h-96q-16 0 -48 2t-48 6l-40 4q16 0 40 4t88 4q24 32 40 48zM500 1076q4 84 44 152l52 -4q-32 -48 -48 -148h-48zM1652 944h32q20 48 24 108h-28q-8 -64 -28 -108zM1652 1160q48 -56 56 -148h-28l-8 -8q0 -8 8 -8h28h24h92q40 4 108 4l48 4h-48 q-32 4 -108 4h-92q0 60 -24 108h12q4 0 10 2t10 6h12q-4 4 -12 4q-12 0 -20 4h-20q-4 12 -12 28h-36zM1708 1092q0 -12 8 -12h16q36 0 56 4q8 0 28 2t28 6l28 4q-12 4 -28 4q-16 4 -56 4h-56h-16z" />
<glyph unicode="m" d="M68 1036q0 28 24 28h636q8 76 66 128t138 52q36 0 84 -20q40 20 84 20q76 0 136 -52t68 -128h652q24 0 24 -28q0 -24 -24 -24h-652q-8 -76 -68 -128t-136 -52q-44 0 -84 20q-48 -20 -84 -20q-80 0 -138 52t-66 128h-636q-24 0 -24 24zM212 832q0 36 36 36q32 0 32 -36 t-32 -36q-36 0 -36 36zM212 1276q0 36 36 36q32 0 32 -36q0 -32 -32 -32q-36 0 -36 32zM316 592q0 32 32 32q36 0 36 -32q0 -36 -36 -36q-32 0 -32 36zM316 1520q0 32 32 32q36 0 36 -32q0 -36 -36 -36q-32 0 -32 36zM452 352q0 32 36 32q32 0 32 -32q0 -36 -32 -36 q-36 0 -36 36zM452 1760q0 32 36 32q32 0 32 -32q0 -36 -32 -36q-36 0 -36 36zM488 808q0 60 56 60q20 0 38 -18t18 -42q0 -20 -18 -38t-38 -18q-24 0 -40 18t-16 38zM488 1256q0 56 56 56q20 0 38 -16t18 -40t-18 -40t-38 -16q-56 0 -56 56zM588 592q0 32 36 32 q32 0 32 -32q0 -36 -32 -36q-36 0 -36 36zM588 1520q0 32 36 32q32 0 32 -32q0 -36 -32 -36q-36 0 -36 36zM724 352q0 32 36 32q32 0 32 -32q0 -36 -32 -36q-36 0 -36 36zM728 1760q0 32 32 32q36 0 36 -32q0 -36 -36 -36q-32 0 -32 36zM792 696q0 28 20 48t48 20t50 -20 t22 -48q0 -32 -22 -52t-50 -20t-48 22t-20 50zM792 1036q0 -56 40 -96t96 -40q48 0 88 32q40 -32 84 -32q56 0 96 40t40 96t-40 98t-96 42q-44 0 -80 -28l-4 -4q-40 32 -88 32q-56 0 -96 -40t-40 -100zM804 1424q0 28 20 48t48 20t48 -20t20 -48t-20 -50t-48 -22 q-68 0 -68 72zM920 1012l44 24l-44 28h52l-28 44l48 -28l-4 56l28 -48l24 48v-56l48 28l-28 -44h52l-48 -28l48 -24h-52l28 -44l-48 24v-52l-24 48l-28 -48l4 52l-48 -24l28 44h-52zM976 300q0 32 36 32t36 -32q0 -36 -36 -36t-36 36zM976 524q0 36 36 36t36 -36 q0 -32 -36 -32t-36 32zM976 1584q0 32 36 32t36 -32q0 -36 -36 -36t-36 36zM976 1808q0 36 36 36t36 -36q0 -32 -36 -32t-36 32zM1100 696q0 28 20 48t48 20t48 -20t20 -48q0 -72 -68 -72q-28 0 -48 22t-20 50zM1100 1416q0 28 20 48t48 20t48 -20t20 -48q0 -68 -68 -68 q-28 0 -48 20t-20 48zM1236 352q0 32 36 32q32 0 32 -32q0 -36 -32 -36q-36 0 -36 36zM1236 1760q0 32 36 32q32 0 32 -32q0 -36 -32 -36q-36 0 -36 36zM1376 592q0 32 32 32q36 0 36 -32q0 -36 -36 -36q-32 0 -32 36zM1376 1520q0 32 32 32q36 0 36 -32q0 -36 -36 -36 q-32 0 -32 36zM1452 808q0 60 56 60t56 -60q0 -20 -16 -38t-40 -18t-40 18t-16 38zM1452 1256q0 56 56 56t56 -56t-56 -56t-56 56zM1512 352q0 32 32 32q36 0 36 -32q0 -36 -36 -36q-32 0 -32 36zM1512 1760q0 32 32 32q36 0 36 -32q0 -36 -36 -36q-32 0 -32 36zM1648 592 q0 32 32 32q36 0 36 -32q0 -36 -36 -36q-32 0 -32 36zM1648 1520q0 32 32 32q36 0 36 -32q0 -36 -36 -36q-32 0 -32 36zM1748 832q0 36 36 36t36 -36t-36 -36t-36 36zM1748 1276q0 36 36 36t36 -36q0 -32 -36 -32t-36 32z" />
<glyph unicode="n" d="M408 488v920q0 32 24 56q28 20 56 20h420l308 -308v-688q0 -32 -24 -56q-16 -24 -52 -24h-652q-32 0 -56 24t-24 56zM488 488h652v612h-308v308h-344v-920zM832 1560q0 32 24 56q16 24 52 24h424l308 -308v-692q0 -32 -24 -56q-28 -20 -56 -20h-268v76h268v616h-304v304 h-424zM908 1176h200l-200 200v-200zM1332 1332h196l-196 200v-200z" />
<glyph unicode="o" d="M752 1024q0 112 80 192t192 80t192 -80t80 -192t-80 -192t-192 -80t-192 80t-80 192z" />
<glyph unicode="p" d="M340 1024q0 280 202 482t482 202t482 -202t202 -482t-202 -482t-482 -202t-482 202t-202 482zM476 1024q0 -224 162 -386t386 -162t386 162t162 386t-162 386t-386 162t-386 -162t-162 -386zM752 1024q0 112 80 192t192 80t192 -80t80 -192t-80 -192t-192 -80t-192 80 t-80 192z" />
<glyph unicode="q" d="M684 660q0 44 44 44h592q44 0 44 -44t-44 -44h-592q-44 0 -44 44zM748 1040q-28 28 0 48q4 12 24 12h104v252q0 12 16 12h264q16 0 16 -12v-252h104q36 0 36 -32q0 -16 -12 -28l-268 -240q-8 -8 -16 0z" />
<glyph unicode="r" d="M796 1112q-12 20 0 40q16 8 20 8h440q28 0 28 -28q0 -4 -8 -20l-232 -228q-8 -8 -16 0z" />
<glyph unicode="s" d="M556 1208q-12 -20 4 -36l476 -352q20 -16 44 0l476 352q20 16 4 40t-36 8q-216 -128 -466 -128t-466 128q-24 16 -36 -12z" />
<glyph unicode="t" d="M272 960q0 -112 198 -194t494 -94h8h4q8 -4 12 -4q36 -1 72 -1q197 0 380 37l60 8l-216 112l-24 -36l104 -56q-140 -22 -287 -22q-42 0 -85 2h-24q-276 16 -462 86t-186 162q0 108 264 184l-16 40q-296 -84 -296 -224zM820 892q0 -72 80 -80v-76h44v100q0 24 -24 24h-20 q-36 0 -36 32v344q0 36 36 36h316q36 0 36 -36v-344q0 -32 -36 -32h-20q-24 0 -24 -24v-104h48v80q76 8 76 80v344q0 32 -24 56t-56 24h-316q-32 0 -56 -24t-24 -56v-344zM888 492q0 -32 26 -58t62 -26h164q36 0 62 26t26 58v112h-48v-112q0 -36 -40 -36h-164q-40 0 -40 36 v112h-48v-112zM920 1508q0 52 42 92t98 40t96 -40t40 -92t-40 -90t-96 -38t-98 38t-42 90zM968 1508q0 -32 26 -58t66 -26q36 0 62 26t26 58q0 36 -26 60t-62 24q-40 0 -66 -24t-26 -60zM1432 1140q136 -32 218 -92t82 -128q0 -132 -248 -208l12 -44q280 84 280 252 q0 88 -90 158t-242 106z" />
<glyph unicode="u" d="M684 1108v128q0 24 4 32q4 12 20 28t28 20q16 8 32 8h84v112q0 92 40 152q36 56 80 80q48 28 84 32q56 8 64 8q4 0 4 -4h4h112q32 0 60 -24q24 -24 24 -60v-128q0 -36 -28 -60q-24 -24 -60 -24h-84v-84h132q20 0 36 -12q20 -8 32 -24q8 -12 16 -36q0 -24 -4 -40l-28 -128 q-16 -32 -32 -44q-20 -16 -52 -16h-100v-552q0 -32 -24 -64q-32 -24 -60 -24h-128q-36 0 -60 24q-28 28 -28 64v552h-84q-36 0 -60 24q-24 32 -24 60zM768 1108h172v-640h128v640h184l32 128h-216v204l8 24q4 28 52 28h108v128h-108h-4h-4q-32 0 -104 -28q-76 -24 -76 -156 v-200h-172v-128z" />
<glyph unicode="v" d="M36 1024q0 412 288 700t700 288t700 -288t288 -700t-288 -700t-700 -288t-700 288t-288 700zM104 1024q0 -380 270 -650t650 -270t650 270t270 650t-270 650t-650 270t-650 -270t-270 -650zM684 1108v128q0 24 4 32q4 12 20 28t28 20q16 8 32 8h84v112q0 92 40 152 q36 56 80 80q48 28 84 32q56 8 64 8q4 0 4 -4h4h112q32 0 60 -24q24 -24 24 -60v-128q0 -36 -28 -60q-24 -24 -60 -24h-84v-84h132q20 0 36 -12q20 -8 32 -24q8 -12 16 -36q0 -24 -4 -40l-28 -128q-16 -32 -32 -44q-20 -16 -52 -16h-100v-552q0 -32 -24 -64q-32 -24 -60 -24 h-128q-36 0 -60 24q-28 28 -28 64v552h-84q-36 0 -60 24q-24 32 -24 60zM768 1108h172v-640h128v640h184l32 128h-216v204l8 24q4 28 52 28h108v128h-108h-4h-4q-32 0 -104 -28q-76 -24 -76 -156v-200h-172v-128z" />
<glyph unicode="w" d="M408 416v1216q0 32 24 54t52 22h676q72 0 124 -52l236 -240q52 -52 52 -124v-876q0 -32 -22 -54t-54 -22h-1012q-28 0 -52 22t-24 54zM508 440h964v780h-312q-32 0 -52 22t-20 50v316h-100v-96h-96v96h-384v-1168zM700 684q0 4 2 18t2 22q16 44 92 300v96h96v-96h60 q32 0 48 -36l80 -264q8 -32 8 -40q0 -64 -56 -106t-140 -42t-138 42t-54 106zM796 684q0 -52 96 -52t96 52q0 48 -96 48t-96 -48zM796 1220v96h96v-96h-96zM796 1416v96h96v-96h-96zM892 1120v100h96v-100h-96zM892 1316v100h96v-100h-96zM1184 1316h284q-8 24 -16 32 l-236 240q-4 0 -8 4l-24 12v-288z" />
<glyph unicode="x" d="M408 416v1216q0 32 24 54t52 22h680q76 0 128 -52l236 -240q52 -52 52 -124v-876q0 -32 -22 -54t-50 -22h-1024q-28 0 -52 22t-24 54zM508 440h976v780h-320q-28 0 -50 22t-22 50v316h-584v-1168zM604 864q-12 16 0 28l172 228q16 24 32 8l40 -32q20 -16 4 -32l-136 -188 l136 -184q12 -20 -4 -32l-40 -32q-16 -12 -32 4zM896 568l104 636q0 20 28 20l48 -8q20 -8 20 -28l-104 -636q-8 -20 -32 -20l-48 8q-24 8 -16 28zM1136 692l140 184l-140 188q-16 16 4 32l40 32q16 12 36 -8l172 -228q8 -12 0 -28l-172 -232q-20 -16 -36 -4l-40 32 q-16 16 -4 32zM1188 1316h288q-8 24 -16 32l-240 240q-12 12 -32 16v-288z" />
<glyph unicode="y" d="M408 416v1216q0 32 24 54t52 22h680q76 0 128 -52l236 -240q52 -52 52 -124v-876q0 -32 -22 -54t-50 -22h-1024q-28 0 -52 22t-24 54zM508 440h976v780h-320q-28 0 -50 22t-22 50v316h-584v-1168zM736 536v80h52l148 216l-144 208h-52v80h220v-80h-56l80 -120 q4 -4 12 -20q4 0 4 -8h4q4 12 16 28l76 120h-56v80h212v-80h-52l-148 -216l148 -208h52v-80h-224v80h60l-80 124q-12 12 -16 20q0 4 -4 4t-16 -24l-80 -124h60v-80h-216zM1188 1316h288q-8 24 -16 32l-240 240q-12 12 -32 16v-288z" />
<glyph unicode="z" d="M408 416v1216q0 32 24 54t52 22h680q76 0 128 -52l236 -240q52 -52 52 -124v-876q0 -32 -22 -54t-50 -22h-1024q-28 0 -52 22t-24 54zM508 440h976v780h-320q-28 0 -50 22t-22 50v316h-584v-1168zM604 536v148l148 144l96 -96l292 292l244 -244v-244h-780zM604 1072 q0 60 44 104t104 44t102 -44t42 -104t-42 -102t-102 -42t-104 42t-44 102zM1188 1316h288q-8 24 -16 32l-240 240q-12 12 -32 16v-288z" />
<glyph unicode="{" d="M272 1472q0 24 28 24h148q24 0 24 -24q0 -28 -24 -28h-148q-28 0 -28 28zM380 1604q-16 20 0 36q16 20 36 0l52 -48q16 -20 0 -36q-20 -20 -36 0zM404 1300q-16 20 0 36l52 52q16 16 36 0q16 -20 0 -36l-52 -52q-16 -16 -36 0zM524 1480q0 -24 8 -40l496 -1180 q8 -20 20 -24q8 -8 20 -8q4 0 20 8q8 4 16 20l160 500l484 152q28 16 28 40q-8 24 -36 36l-1164 500l-16 8h-12q-20 0 -24 -12zM524 1596v152q0 28 24 28t24 -28v-152q0 -24 -24 -24t-24 24zM632 1556q-20 16 0 36l48 48q20 20 36 0q20 -16 0 -36l-48 -48q-20 -20 -36 0z M648 1364l980 -416l-424 -128l-144 -428z" />
<glyph unicode="|" d="M272 592v96q0 20 16 36q12 12 32 12h92q20 0 36 -12q12 -20 12 -36v-96q0 -20 -12 -32q-16 -12 -36 -12h-92q-20 0 -32 12q-16 12 -16 32zM272 976v96q0 20 16 32q12 16 32 16h92q20 0 36 -16q12 -12 12 -32v-96q0 -20 -12 -32q-16 -16 -36 -16h-92q-20 0 -32 16 q-16 12 -16 32zM272 1360v96q0 20 16 32q12 12 32 12h92q20 0 36 -12q12 -12 12 -32v-96q0 -16 -12 -36q-16 -12 -36 -12h-92q-20 0 -32 12q-16 16 -16 36zM696 640q0 16 12 36q20 12 36 12h984q20 0 32 -12q16 -16 16 -36t-16 -32q-16 -16 -32 -16h-984q-12 0 -36 16 q-12 12 -12 32zM696 1024q0 20 12 32q16 16 36 16h984q20 0 32 -16q16 -12 16 -32t-16 -32q-12 -16 -32 -16h-984q-20 0 -36 16q-12 12 -12 32zM696 1408q0 20 12 32q24 16 36 16h984q16 0 32 -16q16 -12 16 -32t-16 -36q-12 -12 -32 -12h-984q-16 0 -36 12q-12 20 -12 36z " />
<glyph unicode="}" d="M272 700q0 16 8 24q8 12 20 20l136 60l100 -52l-116 -52l596 -324l604 324l-112 52l100 56l132 -64q12 -8 20 -20q8 -16 8 -24t-8 -24q-4 -12 -16 -16l-704 -380q-4 -4 -12 -4q-4 -4 -12 -4t-12 4q-8 0 -12 4l-696 380q-12 4 -16 16q-8 16 -8 24zM272 1028q0 12 8 28 q12 12 20 16l148 72l96 -56l-124 -60l596 -324l604 324l-116 60l96 52l140 -68q12 -8 20 -20q8 -16 8 -24t-8 -24q-4 -12 -16 -16l-704 -380q-4 -4 -12 -4q-4 0 -12 -4h-4q-4 4 -8 4q-8 0 -12 4l-696 380q-12 4 -16 16q-8 16 -8 24zM280 1376q0 8 8 24q4 8 20 16l704 352 q8 8 20 8t20 -8l700 -352l16 -16q8 -16 8 -24q0 -12 -8 -28q-4 -12 -16 -16l-704 -380h-4q-4 -4 -8 -4h-12h-12l-8 4l-700 380q-12 4 -16 16q-8 16 -8 28zM428 1372l596 -324l604 324l-596 304z" />
<glyph unicode="&#xad;" d="M68 1024q0 -204 76 -372q76 -180 204 -304q124 -128 304 -204q168 -76 372 -76t372 76q180 76 304 204q128 124 204 304q76 168 76 372t-76 372q-76 180 -204 304q-124 128 -304 204q-168 76 -372 76t-372 -76q-180 -76 -304 -204q-128 -124 -204 -304q-76 -168 -76 -372 zM188 1024q0 184 68 324q68 160 176 268t268 176q140 68 324 68t324 -68q160 -68 268 -176q104 -104 180 -268q64 -144 64 -324t-64 -324q-76 -164 -180 -268q-116 -116 -268 -180q-156 -68 -324 -68t-324 68q-152 64 -268 180q-108 108 -176 268q-68 140 -68 324zM768 668 v712q0 8 12 20q16 8 28 8q16 0 28 -12l532 -352q12 -12 12 -20q0 -16 -12 -20l-532 -356q-16 -8 -28 -8t-28 8q-12 8 -12 20z" />
<glyph unicode="&#x2000;" horiz-adv-x="1024" />
<glyph unicode="&#x2001;" />
<glyph unicode="&#x2002;" horiz-adv-x="1024" />
<glyph unicode="&#x2003;" />
<glyph unicode="&#x2004;" horiz-adv-x="682" />
<glyph unicode="&#x2005;" horiz-adv-x="512" />
<glyph unicode="&#x2006;" horiz-adv-x="341" />
<glyph unicode="&#x2007;" horiz-adv-x="341" />
<glyph unicode="&#x2008;" horiz-adv-x="256" />
<glyph unicode="&#x2009;" horiz-adv-x="409" />
<glyph unicode="&#x200a;" horiz-adv-x="113" />
<glyph unicode="&#x2010;" d="M68 1024q0 -204 76 -372q76 -180 204 -304q124 -128 304 -204q168 -76 372 -76t372 76q180 76 304 204q128 124 204 304q76 168 76 372t-76 372q-76 180 -204 304q-124 128 -304 204q-168 76 -372 76t-372 -76q-180 -76 -304 -204q-128 -124 -204 -304q-76 -168 -76 -372 zM188 1024q0 184 68 324q68 160 176 268t268 176q140 68 324 68t324 -68q160 -68 268 -176q104 -104 180 -268q64 -144 64 -324t-64 -324q-76 -164 -180 -268q-116 -116 -268 -180q-156 -68 -324 -68t-324 68q-152 64 -268 180q-108 108 -176 268q-68 140 -68 324zM768 668 v712q0 8 12 20q16 8 28 8q16 0 28 -12l532 -352q12 -12 12 -20q0 -16 -12 -20l-532 -356q-16 -8 -28 -8t-28 8q-12 8 -12 20z" />
<glyph unicode="&#x2011;" d="M68 1024q0 -204 76 -372q76 -180 204 -304q124 -128 304 -204q168 -76 372 -76t372 76q180 76 304 204q128 124 204 304q76 168 76 372t-76 372q-76 180 -204 304q-124 128 -304 204q-168 76 -372 76t-372 -76q-180 -76 -304 -204q-128 -124 -204 -304q-76 -168 -76 -372 zM188 1024q0 184 68 324q68 160 176 268t268 176q140 68 324 68t324 -68q160 -68 268 -176q104 -104 180 -268q64 -144 64 -324t-64 -324q-76 -164 -180 -268q-116 -116 -268 -180q-156 -68 -324 -68t-324 68q-152 64 -268 180q-108 108 -176 268q-68 140 -68 324zM768 668 v712q0 8 12 20q16 8 28 8q16 0 28 -12l532 -352q12 -12 12 -20q0 -16 -12 -20l-532 -356q-16 -8 -28 -8t-28 8q-12 8 -12 20z" />
<glyph unicode="&#x2012;" d="M68 1024q0 -204 76 -372q76 -180 204 -304q124 -128 304 -204q168 -76 372 -76t372 76q180 76 304 204q128 124 204 304q76 168 76 372t-76 372q-76 180 -204 304q-124 128 -304 204q-168 76 -372 76t-372 -76q-180 -76 -304 -204q-128 -124 -204 -304q-76 -168 -76 -372 zM188 1024q0 184 68 324q68 160 176 268t268 176q140 68 324 68t324 -68q160 -68 268 -176q104 -104 180 -268q64 -144 64 -324t-64 -324q-76 -164 -180 -268q-116 -116 -268 -180q-156 -68 -324 -68t-324 68q-152 64 -268 180q-108 108 -176 268q-68 140 -68 324zM768 668 v712q0 8 12 20q16 8 28 8q16 0 28 -12l532 -352q12 -12 12 -20q0 -16 -12 -20l-532 -356q-16 -8 -28 -8t-28 8q-12 8 -12 20z" />
<glyph unicode="&#x2013;" horiz-adv-x="1160" d="M68 1024q0 -204 41 -372q40 -180 109 -304q66 -128 163 -204q90 -76 199 -76t199 76q97 76 163 204q69 124 109 304q41 168 41 372t-41 372q-40 180 -109 304q-66 128 -163 204q-90 76 -199 76t-199 -76q-97 -76 -163 -204q-69 -124 -109 -304q-41 -168 -41 -372z M132 1024q0 184 37 324q36 160 94 268t143 176q75 68 174 68t174 -68q85 -68 143 -176q56 -104 96 -268q35 -144 35 -324t-35 -324q-40 -164 -96 -268q-62 -116 -143 -180q-84 -68 -174 -68t-174 68q-81 64 -143 180q-58 108 -94 268q-37 140 -37 324zM443 668v712q0 8 6 20 q9 8 15 8q9 0 15 -12l285 -352q7 -12 7 -20q0 -16 -7 -20l-285 -356q-8 -8 -14.5 -8t-15.5 8q-6 8 -6 20z" />
<glyph unicode="&#x2014;" horiz-adv-x="2184" d="M68 1024q0 -204 81 -372q82 -180 219 -304q133 -128 326 -204q179 -76 398 -76t398 76q193 76 326 204q137 124 219 304q81 168 81 372t-81 372q-82 180 -219 304q-133 128 -326 204q-179 76 -398 76t-398 -76q-193 -76 -326 -204q-137 -124 -219 -304q-81 -168 -81 -372 zM197 1024q0 184 72 324q73 160 189 268t287 176q150 68 347 68t347 -68q171 -68 287 -176q112 -104 193 -268q68 -144 68 -324t-68 -324q-81 -164 -193 -268q-124 -116 -287 -180q-167 -68 -347 -68t-347 68q-163 64 -287 180q-116 108 -189 268q-72 140 -72 324zM818 668 v712q0 8 13 20q17 8 30 8q17 0 30 -12l569 -352q13 -12 13 -20q0 -16 -13 -20l-569 -356q-18 -8 -30.5 -8t-29.5 8q-13 8 -13 20z" />
<glyph unicode="&#x202f;" horiz-adv-x="409" />
<glyph unicode="&#x205f;" horiz-adv-x="512" />
<glyph unicode="&#x25fc;" horiz-adv-x="1700" d="M0 0v1700h1700v-1700h-1700z" />
</font>
</defs>
</svg>
