<?xml version="1.0" encoding="utf-8"?>
<!-- Generator: Adobe Illustrator 19.1.0, SVG Export Plug-In . SVG Version: 6.00 Build 0)  -->
<svg version="1.1" id="Capa_1" xmlns="http://www.w3.org/2000/svg" xmlns:xlink="http://www.w3.org/1999/xlink" x="0px" y="0px"
	 viewBox="-74.3 1219.2 56.7 56.7" style="enable-background:new -74.3 1219.2 56.7 56.7;" xml:space="preserve">
<style type="text/css">
	.st0{fill:#BEBEBE;}
</style>
<path class="st0" d="M-46,1244.6c-4.2,0-7.6,3.4-7.6,7.6s3.4,7.6,7.6,7.6s7.6-3.4,7.6-7.6c0-0.8,0-1.1-0.4-1.5
	c5.7-6.4,14.4-16.6,18.9-22.3c1.5-1.9,0-3.8-2.3-2.3c-5.7,4.9-15.9,13.2-22.3,18.9C-44.9,1244.9-45.2,1244.6-46,1244.6z
	 M-43.7,1230.6c0-1.1-1.1-2.3-2.3-2.3c-1.1,0-2.3,1.1-2.3,2.3s1.1,2.3,2.3,2.3C-44.9,1232.8-43.7,1231.7-43.7,1230.6z M-30.9,1248
	c0,1.1,1.1,2.3,2.3,2.3c1.1,0,2.3-1.1,2.3-2.3s-1.1-2.3-2.3-2.3C-29.7,1245.7-30.9,1246.8-30.9,1248z M-54.7,1230.6
	c-1.1,0-2.3,1.1-2.3,2.3s1.1,2.3,2.3,2.3c1.1,0,2.3-1.1,2.3-2.3C-52.4,1231.3-53.6,1230.6-54.7,1230.6z M-59.2,1239.3
	c0-1.1-1.1-2.3-2.3-2.3s-2.3,1.1-2.3,2.3s1.1,2.3,2.3,2.3S-59.2,1240.4-59.2,1239.3z M-65.7,1248c0,1.1,1.1,2.3,2.3,2.3
	c1.1,0,2.3-1.1,2.3-2.3s-1.1-2.3-2.3-2.3C-64.5,1245.7-65.7,1246.8-65.7,1248z M-35,1232.5c0-1.1-1.1-2.3-2.3-2.3s-2.3,1.1-2.3,2.3
	s1.1,2.3,2.3,2.3S-35,1234-35,1232.5z M-20.3,1235.9l-4.5,6c0.4,1.9,0.8,3.8,0.8,5.7c0,12.1-9.8,21.9-21.9,21.9s-21.9-9.8-21.9-21.9
	c0-12.1,9.8-21.9,21.9-21.9c4.5,0,8.7,1.5,12.1,3.8l5.3-4.2c-4.9-3.8-11-6-17.4-6c-15.5,0-28.3,12.9-28.3,28.3s12.9,28.3,28.3,28.3
	s28.3-12.9,28.3-28.3C-17.7,1243.8-18.8,1239.7-20.3,1235.9L-20.3,1235.9z"/>
</svg>
